<?xml version="1.0" encoding="UTF-8" standalone="no"?>
<!-- Created with Inkscape (http://www.inkscape.org/) -->
<svg
   xmlns:dc="http://purl.org/dc/elements/1.1/"
   xmlns:cc="http://creativecommons.org/ns#"
   xmlns:rdf="http://www.w3.org/1999/02/22-rdf-syntax-ns#"
   xmlns:svg="http://www.w3.org/2000/svg"
   xmlns="http://www.w3.org/2000/svg"
   xmlns:sodipodi="http://sodipodi.sourceforge.net/DTD/sodipodi-0.dtd"
   xmlns:inkscape="http://www.inkscape.org/namespaces/inkscape"
   width="744.09448819"
   height="1052.3622047"
   id="svg2516"
   sodipodi:version="0.32"
   inkscape:version="0.46"
   sodipodi:docname="kallinn.svg"
   inkscape:output_extension="org.inkscape.output.svg.inkscape">
  <defs
     id="defs2518">
    <inkscape:perspective
       sodipodi:type="inkscape:persp3d"
       inkscape:vp_x="0 : 526.18109 : 1"
       inkscape:vp_y="0 : 1000 : 0"
       inkscape:vp_z="744.09448 : 526.18109 : 1"
       inkscape:persp3d-origin="372.04724 : 350.78739 : 1"
       id="perspective2524" />
  </defs>
  <sodipodi:namedview
     id="base"
     pagecolor="#ffffff"
     bordercolor="#666666"
     borderopacity="1.0"
     gridtolerance="10000"
     guidetolerance="10"
     objecttolerance="10"
     inkscape:pageopacity="0.0"
     inkscape:pageshadow="2"
     inkscape:zoom="0.35"
     inkscape:cx="375"
     inkscape:cy="520"
     inkscape:document-units="px"
     inkscape:current-layer="layer1"
     showgrid="false"
     inkscape:window-width="645"
     inkscape:window-height="717"
     inkscape:window-x="112"
     inkscape:window-y="24" />
  <metadata
     id="metadata2521">
    <rdf:RDF>
      <cc:Work
         rdf:about="">
        <dc:format>image/svg+xml</dc:format>
        <dc:type
           rdf:resource="http://purl.org/dc/dcmitype/StillImage" />
      </cc:Work>
    </rdf:RDF>
  </metadata>
  <g
     inkscape:label="Layer 1"
     inkscape:groupmode="layer"
     id="layer1">
    <path
       id="path2497"
       style="fill:#000000"
       d="M 322.22016,966.63594 C 322.22016,899.74859 304.47909,892.44032 251.11391,937.34422 C 226.68529,957.89939 184.0018,978.40045 156.26149,982.90212 L 105.82459,991.08685 L 96.20304,920.11161 C 90.91107,881.07519 80.354558,828.75829 72.744128,803.85171 C 57.331566,753.41157 71.948051,699.14172 109.29287,668.14825 C 122.15673,657.47222 132.68161,640.50253 132.68161,630.4379 C 132.68161,620.37329 142.97921,603.59229 155.56502,593.14696 C 168.34484,582.54064 175.18533,561.67678 171.05779,545.89304 C 166.99286,530.34884 179.62357,454.43954 199.12612,377.20578 C 229.08766,258.552 241.9436,230.5647 282.04766,196.68614 L 329.51013,156.59148 L 281.99411,116.49677 C 189.09589,38.107993 233.225,16.425319 361.83462,77.267561 C 437.90943,113.25666 460.36244,153.81985 399.36636,145.07165 C 375.13952,141.5969 368.19203,151.3589 360.45465,199.7462 C 353.32954,244.3038 344.36846,258.65068 323.66314,258.65068 C 268.82434,258.65068 238.10621,304.77561 227.98393,402.31802 C 220.39543,475.44363 222.39784,493.57913 237.49063,488.42012 C 249.52378,484.30701 254.9827,463.40616 252.2185,432.03101 C 248.71172,392.22835 256.8361,373.54521 292.51571,339.36207 C 333.97531,299.64107 338.93684,298.2787 361.16918,320.51099 C 383.40147,342.74328 383.38687,349.04837 360.96669,407.75461 C 330.34573,487.9345 330.57881,490.82601 366.89875,481.32802 C 404.73114,471.43473 444.64812,411.81423 445.5,363.92829 C 446.16601,326.48887 450.85314,322.63746 544.56348,282.52538 C 587.05617,264.33684 599.23809,250.94878 599.23809,222.43687 C 599.23809,202.25978 604.59099,185.75122 611.13326,185.75122 C 631.16458,185.75122 689.85532,302.343 681.19068,324.92314 C 670.1661,353.65274 632.98265,351.73356 616.09877,321.5637 C 603.26482,298.63049 599.89262,298.60776 565.37702,321.22334 C 545.04146,334.54764 510.10657,377.99845 487.74393,417.78074 C 451.51597,482.22883 434.17563,496.16997 328.64208,545.69504 C 244.21837,585.31372 199.05514,616.62084 171.39793,654.69665 C 133.20243,707.28069 132.99549,708.81693 158.15366,753.01882 C 188.07314,805.586 207.06998,808.56938 260.84597,769.14591 C 282.57337,753.21749 320.3992,736.24988 344.9033,731.44012 C 386.41744,723.29145 390.61909,726.48442 406.50831,778.25611 C 427.7729,847.54231 404.86671,880.24524 378.28551,818.54957 C 368.25909,795.27763 358.87271,774.27232 357.42708,771.87122 C 354.68578,767.31813 255.04653,830.5074 224.42135,856.22096 C 197.57442,878.76204 179.34353,874.02222 169.13133,841.84633 C 153.53827,792.7169 132.68161,809.40232 132.68161,871.00613 C 132.68161,932.25301 149.54212,943.77873 189.85313,910.08808 C 212.23239,891.38427 339.06812,838.65844 344.86804,845.64805 C 346.45996,847.56666 350.75635,886.86177 354.41565,932.97061 C 359.45024,996.40859 356.3431,1016.805 341.64449,1016.805 C 329.22863,1016.805 322.22016,998.70369 322.22016,966.63594 z M 333.88408,430.69341 C 343.50678,421.07071 351.37995,397.65098 351.37995,378.6498 C 351.37995,351.20224 344.66854,345.05944 318.72422,348.76104 C 285.41911,353.51257 269.57501,389.37222 284.07977,427.17105 C 293.90503,452.77536 310.61999,453.95751 333.88408,430.69341 z" />
  </g>
</svg>
