<?xml version="1.0" encoding="UTF-8" standalone="no"?>
<!-- Created with Inkscape (http://www.inkscape.org/) -->

<svg
   xmlns:svg="http://www.w3.org/2000/svg"
   xmlns="http://www.w3.org/2000/svg"
   version="1.0"
   width="649.8139"
   height="427.85019"
   id="svg2">
  <defs
     id="defs4" />
  <g
     transform="translate(-53.254198,-287.37885)"
     id="layer1">
    <text
       x="210.37209"
       y="705.55151"
       id="text2845"
       xml:space="preserve"
       style="font-size:48px;font-style:normal;font-variant:normal;font-weight:bold;font-stretch:normal;fill:#000000;fill-opacity:1;stroke:none;font-family:Comic Sans MS;-inkscape-font-specification:Comic Sans MS Bold"><tspan
         x="210.37209"
         y="705.55151"
         id="tspan2847"
         style="font-size:48px;font-style:normal;font-variant:normal;font-weight:bold;font-stretch:normal;font-family:Comic Sans MS;-inkscape-font-specification:Comic Sans MS Bold" /></text>
    <text
       x="97.700912"
       y="252.36555"
       id="text2851"
       xml:space="preserve"
       style="font-size:40px;font-style:normal;font-weight:bold;fill:#000000;fill-opacity:1;stroke:none;font-family:Bitstream Vera Sans;-inkscape-font-specification:Sans"><tspan
         x="97.700912"
         y="252.36555"
         id="tspan2853" /></text>
    <text
       x="-113.42097"
       y="467.52805"
       id="text2855"
       xml:space="preserve"
       style="font-size:40px;font-style:normal;font-weight:bold;fill:#000000;fill-opacity:1;stroke:none;font-family:Bitstream Vera Sans;-inkscape-font-specification:Sans"><tspan
         x="-113.42097"
         y="467.52805"
         id="tspan2857" /></text>
    <text
       x="-17.45648"
       y="460.94464"
       id="text2891"
       xml:space="preserve"
       style="font-size:40px;font-style:normal;font-weight:bold;fill:#000000;fill-opacity:1;stroke:none;font-family:Bitstream Vera Sans;-inkscape-font-specification:Sans"><tspan
         x="-17.45648"
         y="460.94464"
         id="tspan2893" /></text>
    <g
       id="g2854">
      <g
         transform="translate(-3.4334262e-6,1.3272463e-5)"
         id="g3769">
        <g
           id="g2816">
          <path
             d="m 230.95958,655.42834 c 49.26617,-41.53304 62.9784,-56.57092 74.1758,-81.34703 5.45375,-12.06733 9.92004,-16.38528 9.86072,-9.53322 -0.0151,1.73698 -1.67604,8.5917 -3.69108,15.23271 -9.08295,29.93457 -6.63724,67.44033 4.53801,69.59226 9.21317,1.77411 21.50064,-15.986 30.86243,-44.60806 5.8162,-17.78204 7.79672,-14.73594 2.42748,3.7336 -7.75146,26.66409 -22.12716,48.89867 -31.61528,48.89867 -11.79802,0 -20.37328,-21.14872 -18.34314,-45.23862 0.88107,-10.45497 0.38905,-15.39758 -1.53279,-15.39758 -1.5567,0 -2.83036,1.0614 -2.83036,2.35863 0,4.54312 -40.7835,45.39223 -54.23074,54.318 -16.04452,10.64974 -21.14396,11.70484 -9.62105,1.99064 l 0,0 z"
             id="path2810"
             style="fill:#000000" />
          <path
             d="m 518.03491,653.41542 c -12.1094,-8.22002 -38.03713,-33.73627 -50.52135,-49.71953 -2.97915,-3.81415 -5.96568,-6.93482 -6.63678,-6.93482 -0.67109,0 -1.08074,9.37967 -0.91035,20.8437 0.35911,24.16137 -4.34905,36.125 -15.29813,38.87305 -9.36691,2.35095 -20.82154,-10.70319 -29.25755,-33.34301 -7.39155,-19.83685 -11.40529,-37.60661 -7.09851,-31.42675 1.45262,2.08437 2.65855,5.74697 2.67982,8.13912 0.057,6.40728 11.86896,32.0195 19.19899,41.62963 6.85189,8.9833 13.69329,10.62887 18.76794,4.51428 7.32867,-8.83052 5.40632,-46.61571 -4.01493,-78.91649 -3.37541,-11.57259 3.4903,-5.16847 11.6108,10.83021 4.61037,9.08315 13.603,22.44206 19.9836,29.68647 14.4878,16.44911 39.07437,39.6735 42.11299,39.7798 2.59796,0.0909 16.1782,11.58648 16.1782,13.69476 0,2.82885 -4.12562,0.94953 -16.79474,-7.65042 l 0,0 z"
             id="path2808"
             style="fill:#000000" />
        </g>
        <g
           transform="translate(-36.365492,14.348275)"
           id="g2826">
          <g
             id="g3607">
            <path
               d="m 591.88543,593.90642 c -2.27381,-73.06035 -3.30124,-89.24592 -6.2973,-99.20362 -1.29819,-4.31464 -4.83702,-17.50873 -7.86408,-29.32016 -3.02706,-11.81141 -8.88368,-31.96027 -13.0147,-44.77523 -9.45685,-29.33622 -8.77646,-41.7508 1.10742,-20.20648 20.6184,44.94279 33.15238,85.2532 46.52226,149.61974 5.38386,25.91955 5.80089,70.44509 0.72283,77.1772 -3.70969,4.91808 -3.97369,3.79605 -4.00153,-17.00707 -0.0473,-35.31361 -4.55942,-81.78443 -8.69044,-89.50332 -1.30764,-2.44336 -2.37754,-7.38965 -2.37754,-10.99177 0,-14.34668 -15.65058,-64.87576 -19.04338,-61.48296 -0.54189,0.54186 1.13279,8.32179 3.7215,17.28871 13.3381,46.20141 21.0658,96.25345 21.03449,136.23931 -0.029,37.03692 -0.20216,38.4933 -5.37693,45.22233 -4.50871,5.86291 -4.64342,4.75352 -6.4426,-53.05668 l 0,0 z"
               id="path2806"
               style="fill:#000000" />
            <path
               d="m 624.92519,601.47051 c -0.87931,-3.28499 -1.61429,-9.58097 -1.63327,-13.99109 -0.019,-4.41012 -1.11677,-13.50556 -2.43955,-20.21207 -1.32278,-6.70651 -4.311,-22.42602 -6.64046,-34.93223 -15.32848,-82.29401 -45.21927,-170.09307 -70.94603,-208.39178 -5.92066,-8.81393 -7.59443,-15.2042 -3.98233,-15.2042 2.18351,0 2.80031,1.1009 17.88028,31.9147 16.35235,33.41365 19.64123,40.76167 27.8619,62.24859 8.31757,21.7402 25.47029,82.94207 32.02685,114.27363 2.32633,11.11664 5.20968,23.62286 6.40745,27.7916 4.13888,14.40476 7.80373,54.00593 5.3961,58.30812 -2.01535,3.60123 -2.5494,3.35596 -3.93094,-1.80527 z"
               id="path2802"
               style="fill:#000000" />
            <path
               d="m 636.36706,453.49439 c -4.47104,-2.16537 -13.33592,-10.86363 -19.69979,-19.32946 -12.20352,-16.23423 -23.47634,-36.17568 -18.82491,-33.30094 1.51178,0.93433 4.88955,5.8952 7.50615,11.02414 5.8739,11.5138 31.29252,38.33547 36.33015,38.33547 14.36815,0 12.37825,-30.61381 -4.14397,-63.75371 -6.35685,-12.75041 -11.14497,-23.59554 -10.64022,-24.10026 0.50472,-0.50472 9.841,8.05901 20.74728,19.0305 20.42892,20.55111 53.1971,41.49009 76.08055,48.61572 9.74647,3.03495 19.63361,10.10172 14.13333,10.10172 -10.74294,0 -46.71769,-18.48143 -71.53058,-36.74766 -16.73299,-12.31812 -18.37468,-11.22553 -11.55913,7.69281 10.21903,28.36541 0.21145,51.44491 -18.39886,42.43167 l 0,0 z"
               id="path2798"
               style="fill:#000000" />
          </g>
        </g>
        <g
           transform="translate(51.517779,24.367867)"
           id="g2825">
          <path
             d="m 140.06275,635.99893 c -3.68742,-5.0711 -4.42139,-11.69043 -4.42139,-39.87376 0,-41.74958 4.80026,-78.44123 16.26328,-124.31132 8.94144,-35.7798 9.87519,-44.7241 2.93495,-28.11377 -11.57355,27.69943 -21.65812,85.69196 -23.45825,134.89952 -1.54251,42.1653 -1.74966,43.48254 -5.76119,36.63437 -3.53351,-6.0321 -3.89748,-11.67684 -2.41305,-37.42171 0.96146,-16.67496 2.42636,-34.29734 3.25533,-39.16087 3.77745,-22.16216 19.38779,-82.45899 25.50954,-98.53382 9.12393,-23.9581 27.71661,-65.68922 29.26683,-65.68922 2.51614,0 -1.47432,18.94594 -7.71609,36.63437 -2.94207,8.33748 -8.80475,28.23373 -13.02819,44.21389 -8.49008,32.12387 -13.07304,83.98551 -13.34025,150.96016 -0.079,19.80224 -0.71209,35.96775 -1.40688,35.92336 -0.69478,-0.0444 -3.25288,-2.81693 -5.68464,-6.1612 z"
             id="path2804"
             style="fill:#000000" />
          <path
             d="m 109.65814,590.14776 c -1.86107,-1.86107 0.32198,-27.93722 3.67663,-43.91685 1.31274,-6.25311 3.31243,-15.917 4.44374,-21.47532 15.06608,-74.02126 31.84651,-128.31491 55.05093,-178.11883 16.90249,-36.27806 18.12959,-38.66785 23.33195,-45.4394 8.36908,-10.89342 7.99768,-4.03532 -0.55536,10.25555 -33.74234,56.37843 -69.93296,175.45511 -79.95445,263.07131 -1.66641,14.56915 -3.15844,18.45854 -5.99344,15.62354 l 0,0 z"
             id="path2800"
             style="fill:#000000" />
          <path
             d="m 92.690722,443.311 c -12.111907,-4.0764 -15.547831,-20.57195 -8.870119,-42.58441 6.311925,-20.80669 5.330452,-22.93434 -6.075822,-13.17098 -11.067446,9.47329 -49.004154,31.42842 -60.011695,34.73057 -3.934633,1.18033 -9.1435094,2.95457 -11.5752735,3.94276 -2.4317651,0.9882 -4.4213899,0.71081 -4.4213899,-0.61641 0,-1.3272 4.8319472,-4.37473 10.7376604,-6.77226 36.763221,-14.92471 61.442507,-30.88633 82.407779,-53.29828 8.696638,-9.29677 16.418458,-16.29684 17.159558,-15.55574 0.7411,0.74111 -2.15637,7.96492 -6.43883,16.05291 -21.223123,40.08262 -24.09642,76.24413 -5.59151,70.37091 6.74545,-2.14094 29.58058,-27.38478 35.80051,-39.57682 2.74202,-5.37479 5.47169,-9.77236 6.06595,-9.77236 3.27645,0 -5.50577,16.274 -17.02293,31.54459 C 111.3859,436.4636 99.491502,445.59986 92.690722,443.311 z"
             id="path2796"
             style="fill:#000000" />
        </g>
        <path
           d="m 362.91045,287.38982 c -8.46874,0.32162 -6.58681,7.71485 8.75,20.65625 l 13.21875,11.15625 -13.1875,11.15625 c -11.15096,9.41995 -14.73168,17.19574 -23.0625,50.1875 -5.4227,21.4749 -8.94275,42.58417 -7.8125,46.90625 1.14767,4.38868 -0.75907,10.17591 -4.3125,13.125 -3.4995,2.90433 -6.34375,7.57652 -6.34375,10.375 0,2.79847 -2.9232,7.50027 -6.5,10.46875 -10.38376,8.61775 -14.47297,23.72509 -10.1875,37.75 2.11609,6.92529 5.05981,21.4584 6.53125,32.3125 l 2.6875,19.75 14.03125,-2.28125 c 7.71321,-1.25169 19.5826,-6.94087 26.375,-12.65625 14.83822,-12.48556 19.75,-10.47307 19.75,8.125 0,8.91646 1.95401,13.96875 5.40625,13.96875 4.08696,0 4.96238,-5.67352 3.5625,-23.3125 -1.01747,-12.82059 -2.21361,-23.74778 -2.65625,-24.28125 -1.61267,-1.94347 -36.90243,12.70564 -43.125,17.90625 -11.2085,9.36771 -15.875,6.15473 -15.875,-10.875 0,-17.12898 5.78934,-21.75422 10.125,-8.09375 2.83951,8.94652 7.91019,10.26756 15.375,4 8.51535,-7.14967 36.20653,-24.73474 36.96875,-23.46875 0.40196,0.66763 3.02465,6.52922 5.8125,13 7.39092,17.15452 13.75638,8.04633 7.84375,-11.21875 -4.41801,-14.39515 -5.58197,-15.26574 -17.125,-13 -6.81339,1.33736 -17.33368,6.03984 -23.375,10.46875 -14.95245,10.96172 -20.24338,10.14759 -28.5625,-4.46875 -6.99525,-12.29037 -6.93278,-12.72273 3.6875,-27.34375 7.69011,-10.58701 20.24467,-19.2965 43.71875,-30.3125 29.34367,-13.77048 34.17679,-17.64266 44.25,-35.5625 6.21794,-11.06149 15.93944,-23.13892 21.59375,-26.84375 9.59708,-6.28822 10.52526,-6.28285 14.09375,0.0937 4.69457,8.38874 15.02835,8.92579 18.09375,0.9375 2.4092,-6.27842 -13.89903,-38.71875 -19.46875,-38.71875 -1.81908,0 -3.3125,4.6085 -3.3125,10.21875 0,7.92776 -3.37238,11.63016 -15.1875,16.6875 -26.05622,11.15319 -27.37732,12.24619 -27.5625,22.65625 -0.23687,13.31471 -11.32443,29.87417 -21.84375,32.625 -10.09879,2.64092 -10.17042,1.85658 -1.65625,-20.4375 6.23395,-16.32331 6.2442,-18.09955 0.0625,-24.28125 -6.18171,-6.1817 -7.56588,-5.79444 -19.09375,5.25 -9.92074,9.50465 -12.19381,14.7141 -11.21875,25.78125 0.76859,8.72388 -0.74793,14.5126 -4.09375,15.65625 -4.19657,1.43447 -4.73498,-3.60488 -2.625,-23.9375 2.81451,-27.12173 11.34579,-39.9375 26.59375,-39.9375 5.75713,0 8.23761,-3.98573 10.21875,-16.375 2.15138,-13.45412 4.10746,-16.18491 10.84375,-15.21875 16.96,2.43244 10.71515,-8.83695 -10.4375,-18.84375 -14.5275,-6.87262 -25.17435,-9.97006 -30.96875,-9.75 l 0,5e-5 z m 22.5,84.96875 c 4.33131,0.0888 5.5625,2.3929 5.5625,8.59375 0,5.28329 -2.1994,11.79316 -4.875,14.46875 -6.4686,6.4686 -11.11184,6.11929 -13.84375,-1 -4.03306,-10.50999 0.36449,-20.46008 9.625,-21.78125 1.3526,-0.19298 2.53172,-0.30174 3.53125,-0.28125 z"
           id="path2794"
           style="fill:#000000" />
      </g>
      <path
         d="m 251.16663,694.62748 -0.35248,0.375 c -0.0839,0.10938 -0.31054,0.59375 -0.67979,1.45313 l -0.73014,0.49219 0.0504,0.28124 -0.67979,0 -0.65461,0.67969 -0.8812,0 -0.57908,0.28125 c -0.16786,0 -0.35249,0.0938 -0.5539,0.28125 -0.21822,-0.0938 -0.44481,-0.14062 -0.67979,-0.14062 -0.18465,0 -0.40286,0.0469 -0.65461,0.14062 l 0,0.28125 -0.93156,-0.0938 -0.73015,0.0938 -0.67979,-0.0938 -0.10074,0.14062 -0.25178,-0.14062 -0.45319,0.14062 -0.32731,0 c -0.23499,0 -0.48677,0.0391 -0.75531,0.11719 l -0.52873,-0.16406 -0.40284,0.25782 -0.20142,-0.21095 -0.37766,0.21095 c -0.43641,-0.23438 -0.79728,-0.35157 -1.08263,-0.35157 -0.10074,0 -0.25177,0.0469 -0.45319,0.14062 -0.2182,-0.10937 -0.51194,-0.17968 -0.8812,-0.21093 l -1.13299,-0.11718 c -0.35248,0 -0.62943,0.0313 -0.83085,0.0938 l -0.10074,-0.1875 -0.45319,0.28125 c -0.10074,-0.12499 -0.2266,-0.1875 -0.37766,-0.1875 l -0.15107,-0.28125 c -1.05745,-0.0469 -1.58616,-0.74999 -1.58616,-2.10937 l 1.08262,-0.14063 -0.0504,-0.35156 0.25178,-0.32813 0.15106,0.28126 0.30213,0 0,0.23436 0.47837,-0.23436 c 0.26856,0.0469 0.40284,0.16406 0.40284,0.35155 0,0.0938 -0.0504,0.23438 -0.15106,0.42188 l 0.45318,0.0469 0,0.72657 1.30923,0.1875 0.50354,0.42188 0.15107,-0.23438 6.59646,-0.375 2.26597,-0.39844 0.12588,-0.23437 0.5539,-0.0938 0.15107,-0.1875 c 0.78887,-0.14062 1.47705,-0.39844 2.06454,-0.77345 l 0.15106,0.14064 0.10074,-0.28126 0.37767,-0.28125 0.0504,-0.16406 -0.25178,-0.32813 0.10075,-0.42187 -0.57908,-0.44532 -0.10074,-0.375 c -0.26858,-0.0938 -0.43643,-0.18749 -0.50355,-0.28124 l -0.22659,0.0938 -0.50355,-0.44532 -0.20143,0 -0.22659,-0.28125 -0.50355,0 c -0.10074,-0.24998 -0.29375,-0.37499 -0.57907,-0.375 l -0.35249,0.0469 c -0.5707,0 -1.08264,-0.16406 -1.53581,-0.49219 l -0.52873,0 -0.65461,-0.375 -0.3273,0.1875 -0.15107,-0.23438 -0.35248,0 -0.57908,-0.4453 -1.53582,-0.60938 -0.57908,-0.49219 -1.73724,-0.28125 -0.0504,-0.14062 -1.46029,-0.96094 -0.65461,-1.54688 -0.52872,-0.75 -0.15107,-2.22656 0.15107,-0.23437 c -10e-6,-0.62499 0.17624,-1.17186 0.52872,-1.64063 0.63782,-0.34374 0.96513,-0.67967 0.98192,-1.00781 l 0.35248,0.0469 c 0.13427,-0.39061 0.45319,-0.77342 0.95674,-1.14844 l 0.62943,-0.51562 2.99611,-1.19532 1.51064,-0.25781 1.48546,-0.42187 2.31632,0.14062 0.10074,0.28125 0.15106,0 c 0.28533,3e-5 0.51193,0.086 0.67979,0.25781 l 0,0.42188 0.62944,0.42188 c -0.18466,0.75002 -0.27697,1.17189 -0.27695,1.26562 -2e-5,0.28127 -0.15109,0.42189 -0.4532,0.42187 -0.13429,2e-5 -0.37767,-0.33591 -0.73014,-1.00781 l -1.38475,-0.0938 -0.35249,0.0938 c -0.53713,-0.37498 -0.84765,-0.56248 -0.93156,-0.5625 -0.10075,2e-5 -0.15108,0.0469 -0.15107,0.14063 l -0.47836,0.32813 c -0.5707,2e-5 -1.03229,0.14064 -1.38476,0.42187 -0.63783,0.10939 -1.08264,0.3047 -1.33439,0.58594 l -0.57909,0 -0.42801,0.30468 c -0.11751,0.0781 -0.4532,0.18752 -1.00709,0.32813 l -0.20143,0.23438 -0.27695,0.14062 -0.70496,0.63282 -0.47836,0.70312 c -0.48677,0.29688 -0.73855,0.4922 -0.75533,0.58594 l -0.52872,1.96874 0.25177,0.14063 0,0.14063 c -1e-5,0.53125 0.27694,0.98439 0.83085,1.35937 l 0,0.23437 1.38475,0.77344 0.32732,0 0.75531,0.70313 1.03227,0 0.62943,0.49219 1.18334,0.14062 0.35249,0.28125 2.2156,0.63281 c -1e-5,0.18751 0.12588,0.28126 0.37766,0.28125 0.41961,10e-6 0.80566,0.0938 1.15816,0.28126 0.35246,0.1875 0.68817,0.30469 1.0071,0.35155 l 0.0504,0.23438 0.45319,0.23438 0.98192,0 0.8812,0.53906 c 0.10064,0.34375 0.32729,0.63282 0.67979,0.86718 l -0.0504,0.14063 0.25177,0.32813 0.45319,0.0938 -0.20142,0.35155 c 0.31889,0.25001 0.51192,0.50001 0.57908,0.75 l 0,0 z m 11.30463,-30.1875 -0.73014,0.375 -0.20142,0.39844 c -0.26857,0.0469 -0.4574,0.18753 -0.5665,0.42187 -0.1091,0.2344 -0.24757,0.41409 -0.41542,0.53906 l -0.20142,-0.0938 -1.38475,1.66406 -0.73014,0.44531 -0.15107,0.42188 -0.20142,0 c -0.0504,0.43753 -0.31052,0.87502 -0.78049,1.31249 l -0.15107,-1.64062 0.67979,-1.28906 0.80567,-0.67969 c 0.68819,-1.60934 1.12458,-2.42185 1.30923,-2.4375 l -0.17624,-0.11719 0.42801,0 0.15107,-0.60937 0.25177,0.0938 0.15106,-0.23437 0.17624,0 0.30213,-0.0938 0,0.1875 c 0.28533,4e-5 0.47416,0.0274 0.56649,0.082 0.0924,0.0547 0.13847,0.18364 0.13848,0.38672 0.10074,-0.0937 0.19302,-0.14059 0.27695,-0.14062 0.13426,3e-5 0.25177,0.0469 0.35248,0.14062 l 0.10074,0.86719 z m -1.28404,34.03125 -0.15107,0 -0.25177,2.0625 0,1.96876 0.15107,0.35155 -0.15107,1.47657 0.25177,1.19531 -0.25177,0.58594 0.15107,0.5625 c -0.15108,0.32811 -0.25179,0.92967 -0.30214,1.80469 -0.0504,0.87498 -0.18883,1.48045 -0.41542,1.81641 -0.2266,0.33592 -0.36508,0.65233 -0.41543,0.94921 -0.20143,0.70311 -0.59587,1.28124 -1.18333,1.73437 l 0.10074,0.18751 -0.10074,0 c -0.43642,-2e-5 -0.6798,0.24217 -0.73015,0.72656 l -0.25177,-0.11719 c -0.38605,0.15624 -0.663,0.39842 -0.83086,0.72656 l -0.67978,0.14063 -0.25178,0.25782 -0.25176,-0.11719 -0.52873,0.30468 -0.88121,-0.18749 -0.20141,0.23436 -0.20143,0 -0.0504,-0.23436 -0.30213,0.32811 -0.15106,-0.23437 -0.37766,0 c -0.58747,-0.37501 -1.01549,-0.5547 -1.28405,-0.53906 l -0.25178,-0.23438 c -0.23498,-0.0625 -0.59585,-0.12501 -1.08261,-0.18749 l -0.30214,-0.35157 -0.52872,-0.23437 -1.63653,-0.96095 -0.42801,-0.56249 c -0.67139,-0.37501 -1.09521,-0.66408 -1.27146,-0.86719 -0.17623,-0.20314 -0.33149,-0.52345 -0.46578,-0.96093 l -0.52872,-0.32813 c -0.20141,-0.14064 -0.34408,-0.28126 -0.42802,-0.42187 l -0.35248,-0.60938 -0.35249,-0.0938 -0.52872,-1.19531 -0.35248,-0.18751 0,-0.58593 0.35248,0.0938 1.1078,1.40625 0,0.18751 0.40284,0.25781 c 0.13429,0.0781 0.30213,0.29686 0.50355,0.65625 l 0.52872,0.23438 0,0.53906 0.60426,0.23437 c 0.0336,0.12499 0.36088,0.35156 0.98192,0.67969 l -0.10074,0.14063 c 0.1175,-2e-5 0.42802,0.0937 0.93156,0.28125 l 0.25177,0.42187 0.93157,0.39844 -0.10075,0.28124 0.83086,0.0938 0,0.23438 0.40283,0 0.37767,0.35157 0.50354,-0.0469 0.35248,0.1875 c 0.0336,-0.0313 0.0923,-0.0469 0.17624,-0.0469 0.10074,-2e-5 0.20143,0.0938 0.30213,0.28125 0.0672,-0.0313 0.13428,-0.0469 0.20142,-0.0469 0.0672,-10e-6 0.10074,0.0313 0.10074,0.0938 l 0.47837,0.0938 c 0.43641,-2e-5 1.04905,-0.0782 1.83795,-0.23438 l -0.10074,-0.14062 c 0.45319,-0.25002 0.71336,-0.37502 0.7805,-0.375 l 0.50354,0 0.17625,-0.35157 0.35247,-0.23437 0.30214,0 0.20141,-0.72656 0.57908,-0.51562 0.30212,0 c -0.0672,-0.14065 -0.10074,-0.27345 -0.10074,-0.39845 l 0,-0.18749 0.25178,0.0938 -0.15108,-0.32813 0.15108,-0.23438 0.15106,0.0469 c 0.0336,-0.0469 0.12588,-0.2422 0.27695,-0.58594 l -0.20143,0 0.40284,-1.00781 -0.25177,-0.5625 0.65461,-1.73437 0,-1.10157 0.15106,-0.1875 -0.45319,-0.44531 c 0.38605,-0.90626 0.57908,-1.44532 0.57908,-1.61719 0,-0.12501 -0.15946,-0.24219 -0.47836,-0.35156 l 0.25177,-0.32813 -0.0504,-0.53906 0.20142,-0.5625 -0.30213,-0.30469 c 0,-0.45313 0.15946,-0.86718 0.47837,-1.24218 l -0.47837,-1.14844 0.30213,-0.67969 -0.40283,-0.91407 0.40283,-0.32812 0,-0.28124 -0.30213,-0.49219 0,-0.42188 c 0.13428,10e-6 0.20141,-0.0469 0.20142,-0.14063 -1e-5,-0.0938 -0.0168,-0.15624 -0.0504,-0.18749 l 0.15106,-0.72657 -0.40283,-1.24219 c -0.0672,-0.20311 -0.10075,-0.36717 -0.10075,-0.49219 -1e-5,-0.32811 0.11749,-0.64843 0.35249,-0.96093 l -0.0504,-0.375 0.0504,-1.59375 -0.50355,-1.61719 0.25177,-0.77344 -0.25177,-1.10155 0.25177,-0.35157 -0.45319,-2.625 0,-2.0625 0.20142,-0.0938 -0.47837,-0.91406 0.12588,-0.63281 -0.22659,-0.14063 0.22659,-0.1875 0.0504,-0.35157 0.35248,-0.0938 c 0,-0.60936 0.15106,-0.91404 0.4532,-0.91407 0.25176,3e-5 0.37765,0.13284 0.37765,0.39845 l 0.35249,-0.14064 c -1e-5,0.34378 0.14686,0.55471 0.44061,0.63282 0.29372,0.0782 0.44059,0.17189 0.44059,0.28125 l 0,0.42188 -0.25176,-0.0469 0,0.37501 -0.0504,0.72655 0.0504,0.82032 -0.0504,0.28125 0.20143,0.58594 -0.32731,1.10155 0.17625,0.86719 -0.17625,1.4297 0.17625,1.96874 -0.17625,1.05469 0.47837,0.375 c -0.31892,0.43751 -0.47837,0.75782 -0.47837,0.96094 l 0.42801,2.88281 0,0.58593 -0.30213,1.92189 c 0.31891,0.39062 0.46997,0.69531 0.4532,0.91406 l -0.10074,1.92187 0.10074,0.46875 z m 26.71316,-0.5625 -0.73014,0.32813 -0.15108,0.42187 c -0.28535,0.0625 -0.54552,0.14844 -0.78049,0.25781 l -0.25177,-0.16406 -0.37766,0.16406 -0.80568,-0.91406 0,-1.05468 -0.37766,-0.3047 0.10074,-1.47655 -0.30212,-3.07032 0.20141,-1.00782 -0.35248,-0.53906 0.45319,-0.23437 -0.30212,-0.42187 0.10074,-0.44532 0.25177,-0.1875 -0.0504,-0.58594 0.27695,0 0,-0.96093 0.10075,-0.46875 c -0.1343,-0.0313 -0.29376,-0.17968 -0.47838,-0.44532 l -0.80567,0.35157 c -0.21822,0.39064 -0.44482,0.64845 -0.67979,0.77343 l -0.0504,0.51563 -0.57908,0.23437 -0.10074,0.6797 -0.35248,0.23436 0,0.35157 c -0.33572,0.23438 -0.5791,0.51563 -0.73015,0.84375 l -0.35248,0.21094 -0.7805,1.28906 -1.23369,1.14844 -0.40283,0.63281 -1.08263,1.05469 -0.27695,0.5625 -1.48546,0.96093 -1.66171,1.82813 -0.5539,0.14063 c -0.16786,0.0313 -0.42802,0.19531 -0.7805,0.49219 l -0.15106,0 c -0.28536,0 -0.51195,-0.25782 -0.67979,-0.77344 -1.29244,-0.46875 -1.97223,-1.14063 -2.03936,-2.01563 l 0.40283,-0.23437 c -0.23499,-0.60938 -0.36927,-1.23438 -0.40283,-1.875 l -0.27695,-0.1875 0.17623,-0.25782 c 0.0672,-0.0938 0.1175,-0.2539 0.15107,-0.48047 0.0336,-0.22655 0.084,-0.54296 0.15106,-0.94922 l 0.35249,-1.78125 c -0.0336,-0.0625 -0.0504,-0.17186 -0.0504,-0.32812 0,-0.17187 0.0504,-0.35155 0.15106,-0.53906 -0.0672,-0.23437 -0.10074,-0.40625 -0.10074,-0.51563 -1e-5,-0.12499 0.0336,-0.28905 0.10074,-0.49219 l 0.20142,-0.0469 c 0.28534,-0.35937 0.42802,-0.66405 0.42802,-0.91406 0,-0.15624 -0.0545,-0.28124 -0.16366,-0.375 -0.1091,-0.0938 -0.16366,-0.15624 -0.16365,-0.1875 -1e-5,-0.10937 0.0923,-0.18749 0.27696,-0.23438 -0.25178,-0.0469 -0.37767,-0.14842 -0.37767,-0.30468 0,-0.15624 0.17624,-0.23437 0.52873,-0.23438 l 0,-0.0938 c -1e-5,-0.34373 0.1049,-0.66014 0.31472,-0.94922 0.2098,-0.28904 0.3231,-0.48826 0.33989,-0.59766 l -0.35249,-0.0938 0.67979,-1.00781 0,-0.23437 c 0,-0.67186 0.23499,-1.24998 0.70497,-1.73437 l -0.0504,-0.86719 0.2266,-0.14063 c -0.1175,-0.1406 -0.17624,-0.29686 -0.17624,-0.46875 0,-0.0938 0.10909,-0.1406 0.32731,-0.14062 l 0,-0.77344 c 0.16784,-0.0469 0.25176,-0.12498 0.25177,-0.23438 -1e-5,-0.10935 -0.0168,-0.19529 -0.0504,-0.25781 0.10074,-0.1406 0.3357,-0.39842 0.70496,-0.77344 0.36927,-0.37498 0.61265,-0.68748 0.73015,-0.93749 l 0.15107,0 c 0.38604,2e-5 0.57906,-0.0859 0.57907,-0.25781 -1e-5,-0.0625 -0.0504,-0.14061 -0.15106,-0.23438 0.68817,2e-5 1.04904,-0.12498 1.08263,-0.375 l 0.93156,-0.44532 2.66879,0.21094 0,0.1875 2.16525,0.42188 0.20143,0 c 0.31889,2e-5 0.47835,0.13283 0.47836,0.39844 l 0.25178,-0.0938 c 0.084,0.28128 0.27694,0.4219 0.57907,0.42188 l 0.25178,-0.0469 0.4532,0.42187 1.08262,0.25781 0,0.42188 c 0.48674,-0.29686 1.10778,-0.55467 1.86312,-0.77344 l 0,0.77344 -0.25178,0 0.50355,0.23438 -0.10074,0.0938 0.40284,1.21875 -0.45319,0.46876 -0.20141,0.79687 c -0.0672,0.26564 -0.22662,0.59376 -0.47838,0.98437 l 0.3273,0.60938 c -0.0336,0.0469 -0.13009,0.17189 -0.28953,0.375 -0.15948,0.20314 -0.2392,0.56252 -0.23918,1.07812 0.10064,0.0469 0.15104,0.12501 0.15106,0.23438 l -0.10074,0.39843 0.0504,0.32813 -0.15106,0.51563 0.10074,0.44531 -0.30213,0.32812 0.10075,1.05469 -0.15107,0.14062 0.15107,0.21094 -0.15107,0.14063 c 0.0336,0.0313 0.0504,0.0938 0.0504,0.1875 -3e-5,0.14064 -0.0504,0.28126 -0.15107,0.42187 l 0.15107,0.30469 -0.25178,0.42188 c -0.1343,0.0781 -0.20143,0.30469 -0.20142,0.67968 l 0.20142,0.60938 -0.47837,0.58593 c 0.16783,0.32814 0.32729,0.53907 0.47837,0.63281 -0.2518,0.32814 -0.4616,0.94533 -0.62944,1.85157 l 0.42802,0.0938 -0.0504,0.25781 c 0.0336,0.0469 0.0504,0.15626 0.0504,0.32812 -10e-6,0.25001 -0.1259,0.57032 -0.37766,0.96095 l 0.32731,0 0.15106,0.72656 1.03227,0.0938 0.35248,0.60937 c -0.10074,0.0625 -0.15108,0.11719 -0.15106,0.16407 -2e-5,0.12499 0.16783,0.28125 0.50355,0.46874 l -0.0504,0 c -0.0672,0 -0.10075,0.0156 -0.10075,0.0469 -2e-5,0.0782 0.14265,0.22656 0.42802,0.44531 l 0,0 z m -2.64362,-17.25 -0.30214,-0.86719 -0.83085,-0.23438 -1.4351,-1.1953 c -0.21822,-0.12499 -0.39446,-0.18749 -0.52873,-0.18751 -0.084,2e-5 -0.21822,0.0313 -0.40283,0.0938 l -0.25178,-0.23437 -0.83085,0 -0.25177,-0.30469 -0.57908,0.21093 -0.25178,-0.21093 -0.42801,0.11719 -0.80567,-0.11719 c -0.38607,2e-5 -0.99032,0.17971 -1.81278,0.53906 l 0.10074,0.18751 -0.45319,0.14062 -0.10074,0.1875 -0.57908,0.0703 0,0.28125 c -0.3357,0.18752 -0.73014,0.69533 -1.18333,1.52344 -0.28535,0.96876 -0.59587,1.78907 -0.93157,2.46093 l 0.40284,0.18751 -0.65461,0.53906 0.20142,0.375 c -0.30213,0.42189 -0.4532,0.91408 -0.45319,1.47656 l 0,0.25782 -0.37766,0.51562 0,0.82031 c -0.26856,0.28126 -0.41963,0.57033 -0.4532,0.86719 l -0.20141,0.1875 0,0.86719 -0.17624,0.23437 c -1e-5,0.31251 -0.0672,0.74219 -0.20142,1.28907 l 0.27695,0.58593 c -0.21821,0.0781 -0.46159,0.27344 -0.73014,0.58594 l 0.20141,0.375 -0.30212,0.375 0.40283,0.96093 -0.45319,0.58594 0.0504,1.14844 -0.15107,0.53906 0.25178,0.14063 0.10074,0.32812 c 0.28534,0.10938 0.52872,0.28907 0.73014,0.53906 l 1.18334,-0.25781 c 0.21819,-0.46874 0.59586,-0.71875 1.13298,-0.75 l -0.10075,-0.35155 c 0.52033,-0.12501 0.79309,-0.19141 0.81827,-0.19923 0.0252,-0.008 0.0629,-0.0976 0.1133,-0.26953 0.0504,-0.17187 0.20141,-0.33593 0.45318,-0.49219 l 0.10075,0 c 0.10074,0 0.15105,-0.0625 0.15106,-0.1875 l 0.93156,-1.0078 -0.20141,0 0.5539,-0.46876 c 0.18462,-0.17187 0.46157,-0.3203 0.83085,-0.44531 l 0.37766,-0.91406 c 0.63782,-0.25 0.99869,-0.58594 1.08263,-1.00782 l 0.30213,0 0.50355,-0.60937 -0.10075,-0.39844 0.47837,-0.0938 c -0.0672,-0.10937 -0.10075,-0.18749 -0.10075,-0.23437 -2e-5,-0.0469 0.11748,-0.22265 0.35248,-0.52735 0.23497,-0.30468 0.41961,-0.55858 0.5539,-0.76172 l 0.2266,0.0938 c 0.0504,-0.37499 0.23498,-0.66405 0.5539,-0.86719 0.0672,-0.24998 0.20141,-0.4492 0.40284,-0.59765 0.2014,-0.14843 0.34407,-0.22264 0.42801,-0.22265 l 0.35249,0 0.0504,-0.58595 c 0.0672,-0.0625 0.10064,-0.12498 0.10074,-0.18749 -2e-5,-0.0938 -0.0504,-0.1875 -0.15106,-0.28126 0.30211,-0.46873 0.54549,-0.7578 0.73014,-0.86718 l 0.10074,-0.51563 0.35248,-0.25781 -0.10074,-0.42188 c 0.20139,-0.29685 0.32728,-0.58592 0.37765,-0.86718 l 0.4532,-0.42188 0.10074,-1.26562 z m 21.5518,11.8125 c 0.21819,0.14063 0.32729,0.28907 0.32731,0.44532 -2e-5,0.39063 -0.10912,0.60937 -0.32731,0.65624 -0.40285,0.60938 -0.81408,0.91407 -1.23369,0.91406 -10e-6,0.14064 -0.5623,0.67188 -1.68688,1.59376 -0.33571,0.0782 -0.5581,0.16797 -0.6672,0.26952 -0.10911,0.10157 -0.33991,0.30079 -0.69237,0.59767 -0.46999,0.0156 -0.78051,0.20312 -0.93157,0.56249 l -0.50355,0.14063 -0.20141,-0.0938 -0.15106,0.39844 -0.15108,0 c -0.25177,0 -0.61264,0.0938 -1.08262,0.28125 -0.46998,0.18749 -0.76371,0.29688 -0.8812,0.32812 l -0.52873,0.1875 -0.35249,0 -0.30212,-0.42187 -0.47837,-0.375 c -0.20142,-0.48437 -0.46159,-0.90625 -0.7805,-1.26562 l -0.15106,-1.14844 0.0504,-0.56251 -0.25177,-0.30468 0.0504,-1.38281 -0.0504,-1.19532 0.0504,-0.58593 c 0.10074,-0.14063 0.15106,-0.26562 0.15106,-0.375 0,-0.21875 -0.1175,-0.50781 -0.35249,-0.86719 0.13429,-1.32812 0.20142,-2.06249 0.20143,-2.20313 -10e-6,-0.28124 -0.13428,-0.5703 -0.40284,-0.86718 l 0.40284,-0.18751 0.15106,-1.82812 -0.10074,-0.77344 0.37766,-0.86718 -0.27695,-0.96095 c 0.28534,-0.34373 0.42801,-0.75779 0.42801,-1.24219 l 0,-1.59374 0.15107,-0.375 -0.0504,-2.34375 0.15106,-2.32031 c -0.235,-0.56248 -0.31892,-1.16404 -0.25178,-1.80469 l 0.15107,-1.45313 -0.15107,-0.51562 0.25178,-2.17969 c 0.18462,-0.0625 0.38185,-0.14059 0.59167,-0.23438 0.2098,-0.0937 0.33988,-0.14059 0.39024,-0.14062 0.0336,3e-5 0.10075,0.0313 0.20143,0.0938 l 0.25176,0.77344 0.52873,0.42187 -0.37766,0.49219 0,0.18749 c -10e-6,0.18754 0.0588,0.38285 0.17624,0.58594 -0.0336,0.53128 -0.15947,0.79691 -0.37766,0.79688 l 0.15106,0.25781 c 0.0504,0.98441 0.14267,1.65627 0.27695,2.01563 l -0.42801,1.24218 0.3273,0.42188 c -0.38606,0.62502 -0.57907,1.2344 -0.57907,1.82813 0,0.31252 0.15106,0.50783 0.45319,0.58594 l -0.35248,0.91406 c 0.13427,0.29689 0.20141,0.48439 0.20141,0.56249 0,0.15628 -0.0672,0.36721 -0.20141,0.63282 l 0.10074,0.5625 -0.25177,1.54688 -0.0252,0.72656 c -0.0168,0.21877 -0.15947,0.72658 -0.42801,1.52344 l 0.25176,1.00781 -0.15106,1.82812 -0.27695,0.18751 0.32731,0.58593 -0.2266,0.91406 -0.20142,1.42969 0.20142,0.35156 -0.20142,0.14063 c 0.2182,0.25001 0.3273,0.63281 0.32731,1.14844 -1e-5,0.0938 -0.0756,0.28126 -0.2266,0.56249 l 0.2266,0.53906 -0.12589,0.72657 0.2266,0.51562 -0.10074,0.39844 0.5539,1.57032 0.62943,0.23437 c 0.60425,-0.28124 0.9987,-0.42187 1.18333,-0.42188 l 0.30214,0.0469 0.70496,-0.5625 c 0.084,-0.0781 0.29372,-0.16406 0.62943,-0.25781 0.16784,-0.28125 0.46157,-0.4375 0.88121,-0.46876 l 0.25178,-0.25781 0.37765,0.0469 0.10074,-0.23437 0.50355,-0.14063 0.47837,-0.32813 0.50355,-0.14062 c 0.0336,-0.0156 0.19721,-0.15625 0.49095,-0.42187 0.29372,-0.26562 0.55809,-0.46094 0.7931,-0.58594 -2e-5,-0.14062 0.10908,-0.25781 0.3273,-0.35157 0.0504,0.0625 0.11748,0.0938 0.20141,0.0938 0.11748,10e-6 0.28534,-0.0781 0.50355,-0.23437 l 0,0 z m 25.15217,-23.46094 c -2e-5,0.21878 -0.10075,0.4219 -0.30213,0.60938 l -0.20142,-0.18751 -0.47837,0.28125 -0.40284,-0.91406 c -0.31893,-0.85934 -0.59169,-1.41793 -0.81826,-1.67578 -0.22661,-0.25778 -0.39866,-0.38669 -0.51614,-0.38672 l -0.37766,0.25782 c -0.38607,-0.24997 -0.86444,-0.39841 -1.4351,-0.44532 l -0.57908,0.39844 c -0.26858,-0.14059 -0.53714,-0.21091 -0.80567,-0.21094 l -1.25888,0.16406 c -0.13429,0.20316 -0.20143,0.40628 -0.20141,0.60938 -0.084,0.12503 -0.15109,0.18753 -0.20143,0.1875 -0.0336,3e-5 -0.0756,-0.0313 -0.12588,-0.0938 -0.0504,-0.0625 -0.0924,-0.0937 -0.12588,-0.0938 -0.2518,3e-5 -0.93997,0.96097 -2.06455,2.88282 -0.13429,0.84377 -0.26857,1.39065 -0.40284,1.64062 l -0.27695,0.0469 c -0.18464,0.65628 -0.41963,1.25003 -0.70496,1.78125 l 0.40283,0.93751 -0.62942,0.25781 c -0.11752,0.81252 -0.28536,1.35158 -0.50355,1.61718 l 0.0504,0.77345 -0.73014,1.78125 0.10074,0.91406 c -2e-5,0.21876 -0.11751,0.5547 -0.35248,1.00781 -0.16787,0.18751 -0.25179,0.4922 -0.25178,0.91406 -10e-6,0.5469 0.27694,0.82033 0.83085,0.82032 l 0.30213,0 c 0.25176,-0.20312 0.51193,-0.30468 0.7805,-0.30469 l 0.20142,0 c 0.18462,10e-6 0.44479,-0.0313 0.78049,-0.0938 0.0504,-0.0469 0.23917,-0.0507 0.5665,-0.0117 0.32729,0.0391 0.61683,0.0586 0.86862,0.0586 l 0.40283,0 c 0.35247,-0.12498 0.56228,-0.18748 0.62944,-0.1875 0.13426,2e-5 0.49513,0.10939 1.08263,0.32813 l 1.13297,-0.23438 c 0.0168,2e-5 0.10489,0.0313 0.26436,0.0938 0.15944,0.0625 0.33149,0.0938 0.51614,0.0938 0.26854,2e-5 0.48674,-0.0313 0.65461,-0.0938 0.18462,0.23439 0.34407,0.35158 0.47837,0.35157 0.28533,-0.17187 0.50353,-0.2578 0.65461,-0.25782 0.10064,2e-5 0.15105,0.086 0.15107,0.25782 -2e-5,0.0625 -0.0336,0.25 -0.10075,0.56249 l -1.4351,0.44531 -1.53582,-0.30468 c -0.23501,0.20314 -0.65463,0.35157 -1.25887,0.44531 -0.25178,-0.26561 -0.46999,-0.39842 -0.65461,-0.39844 -0.11751,2e-5 -0.4616,0.19533 -1.03227,0.58594 -0.15108,2e-5 -0.4616,-0.0469 -0.93156,-0.14062 l -0.15106,0.23437 -0.7805,0.32812 -0.5539,-0.28125 -0.37767,0.0469 -0.40283,0 c -0.11751,0.0313 -0.28536,0.14845 -0.50355,0.35156 -0.21822,0.20314 -0.4616,0.31252 -0.73014,0.32813 l -0.57908,0.60938 0.15106,0.63281 -0.20142,0.77343 0.20142,0.77344 -0.5539,1.14844 0.15107,2.01562 -0.30213,0.75 0.15106,0.67969 -0.47837,1.14844 0.27695,1.05469 0,0.0469 c -10e-6,0.0625 -0.0629,0.27344 -0.18883,0.63281 -0.12589,0.35938 -0.18883,0.78907 -0.18882,1.28906 l -0.0504,1.26563 c -2e-5,0.45313 0.12587,0.78907 0.37766,1.00781 l -0.2266,0.60938 0.32731,1.10156 -0.2266,0.72656 0.57908,2.60157 0.15106,2.85938 0.83085,1.07812 -0.35248,0.23437 -0.17623,0.72657 c 0.4196,0.51561 0.62941,0.99217 0.62942,1.42968 l 0,0.23438 c 0.10075,0.34374 0.15106,0.61717 0.15107,0.82031 -10e-6,0.40624 -0.20143,0.6328 -0.60426,0.67969 l -0.27695,-0.53906 -0.40283,-0.23438 -0.0504,-0.53907 -1.03227,-2.76561 0,-0.72657 -0.35249,-0.39843 0.30214,-0.46876 -0.25178,-1.05468 0.20142,-0.82032 c -1e-5,-0.0156 -0.0377,-0.13282 -0.1133,-0.35156 -0.0756,-0.21876 -0.1175,-0.48828 -0.12589,-0.8086 -0.008,-0.32031 -0.0125,-0.49609 -0.0125,-0.52734 l -0.37765,-2.48437 0.20142,-0.0938 -0.25178,-1.1953 0.10074,-0.86719 -0.25177,-0.44531 0.20142,-0.32813 -0.0504,-2.55469 0.20142,-0.23437 0,-1.96876 0.22659,-0.42187 -0.12588,-1.64062 0.12588,-0.46876 0.4532,-3.21093 c 0.0168,-0.14062 0.0629,-0.33983 0.13847,-0.59766 0.0756,-0.2578 0.1133,-0.4492 0.11331,-0.57421 -10e-6,-0.0156 -0.15108,-0.33593 -0.4532,-0.96095 l -0.83085,0.35157 -0.7805,-0.23438 -0.50354,0.28125 -0.57909,-0.35155 -0.15106,0.21093 -0.83085,0.14062 -0.85603,-0.18749 -1.46029,0.23437 -0.75531,-0.14062 -0.2266,0.14062 c -0.57069,-0.18748 -0.96094,-0.34765 -1.17075,-0.48047 -0.20981,-0.1328 -0.38186,-0.44139 -0.51614,-0.92578 l 0.25177,-0.70313 c 0.0504,-0.2031 0.20143,-0.30467 0.4532,-0.30468 0.15107,10e-6 0.46159,0.0703 0.93156,0.21093 l 0.15107,0.32813 1.6617,-0.18751 2.06454,0.14063 1.43512,-0.32812 1.03226,0.0469 c 0.46997,2e-5 0.79728,0.10939 0.98191,0.32813 0,-0.10936 0.20981,-0.23436 0.62944,-0.375 l -0.15106,-0.44532 0.25177,-0.96093 0.0756,-0.89063 c 0.0168,-0.29685 0.12588,-0.68747 0.32731,-1.17188 l -0.20142,-1.19531 c 0.0168,-0.0469 0.0797,-0.14842 0.18883,-0.30468 0.1091,-0.15623 0.16365,-0.34373 0.16366,-0.5625 l 0,-0.23438 0.47836,-0.44531 0.25178,-1.57032 0.30212,-0.39843 -0.15106,-0.70312 c 0.28533,-0.43749 0.47836,-0.82029 0.57908,-1.14844 -0.0336,-0.0625 -0.0504,-0.14842 -0.0504,-0.25781 -10e-6,-0.14061 0.0672,-0.38279 0.20143,-0.72657 0.13426,-0.34372 0.23077,-0.59372 0.28953,-0.75 0.0588,-0.15622 0.16365,-0.35544 0.31472,-0.59765 0.15105,-0.24216 0.22659,-0.44138 0.2266,-0.59767 l -0.0504,-0.25781 0,-0.14062 c -10e-6,-0.21872 0.13427,-0.40622 0.40283,-0.5625 l -0.15113,-0.25779 c -1e-5,-0.12498 0.15105,-0.28122 0.4532,-0.46875 0.36924,-0.5156 0.66299,-1.04684 0.8812,-1.59375 0.28533,-0.0313 0.56229,-0.39841 0.83085,-1.10156 l 0.75533,-0.23438 0.67978,0 0.35248,-0.42187 0.93156,0.28125 c 0.5539,-0.26559 1.00708,-0.39841 1.35958,-0.39844 l 1.03228,0.21093 c 0.38602,0.12503 0.60423,0.18753 0.65461,0.18751 0.15104,2e-5 0.39442,-0.0625 0.73014,-0.18751 0.13426,0.0782 0.28532,0.31254 0.45319,0.70313 l 0.7805,0.49219 c 0.28532,0.64066 0.64619,1.1641 1.08262,1.57031 l 0.15107,1.07813 0,0.14062 z m 18.95854,29.03906 c 0.0336,0.15626 0.0504,0.35938 0.0504,0.60938 -3e-5,0.73438 -0.37768,1.10157 -1.13298,1.10157 -0.50356,0 -0.84766,-0.39844 -1.03227,-1.19532 l -0.35249,-1.47656 0,-0.44532 c 0.0336,-0.21874 0.0504,-0.48437 0.0504,-0.79687 -10e-6,-0.375 -0.17626,-0.79687 -0.52872,-1.26562 l 0.35248,-0.77344 -0.20142,-1.14844 0.20142,-0.5625 0,-0.77344 0.12588,-0.67968 -0.22659,-0.75 0.22659,-0.44532 0,-1.78125 0.0504,-2.29687 -0.37766,-1.52344 0.20142,-0.63281 -0.45319,-1.82813 0,-0.58594 -0.83085,-0.32813 -0.93156,0.79689 c -0.1343,0.10939 -0.30215,0.21095 -0.50355,0.30468 l -0.88121,0.35157 -1.43511,1.92187 -0.57908,0.14062 -1.28405,1.96876 0,0.23437 -0.35247,0 -0.15107,0.42188 -0.5539,0.49218 c -0.20143,0.20314 -0.36089,0.50782 -0.47837,0.91406 l -0.52873,1.66407 -0.7805,0.9375 c -0.10074,0.10938 -0.2182,0.375 -0.35247,0.79687 l -0.50355,0.44531 -0.22659,1.24219 -1.08263,0.96094 -0.10074,1.33593 -0.20143,0 -0.35247,0.91407 -0.83085,1.38282 c -0.65463,0.6875 -1.04907,1.15624 -1.18334,1.40625 l -0.25178,-0.0938 -0.3273,0 -0.15106,-0.25782 -0.4532,-1.61719 -0.10074,-2.64844 -0.15107,-0.77343 0.15107,-0.96093 -0.0504,-1.66407 0.25178,-0.0938 0.35249,-4.07813 0.15106,-0.77344 -0.0504,-0.58593 0.27695,-0.14062 -0.12589,-0.32813 0.2266,-1.6875 0.25178,-0.67969 -0.15107,-0.70312 0.15107,-0.35156 -0.15107,-0.28125 0.15107,-1.59376 -0.25178,-0.23437 0.15106,-0.32812 -0.0504,-1.82813 -0.32731,-0.82031 0.32731,0 0,-0.42188 -0.47837,-1.96875 0,-0.96094 -0.20142,-0.44531 -0.25177,-1.52343 c -0.20143,-0.7031 -0.47838,-1.35935 -0.83085,-1.96876 l 0.57907,-0.77343 -0.10074,-0.14063 c 0.40284,3e-5 0.60425,0.19534 0.60426,0.58593 l 0.73014,0.60938 0.20143,0.56251 c 0.0672,0.1719 0.27694,0.43752 0.62942,0.79687 l -0.12588,0.42187 0.32731,0.86719 -0.32731,0.42188 0.47837,0.35155 -0.0504,1.24219 0.0504,2.39063 0.30213,1.21875 -0.20142,0.51563 0.0504,0.91406 -0.20141,0.77344 0.15106,1.19531 -0.35248,1.19531 0.20142,0.32813 -0.10074,2.92969 0.10074,0.4453 -0.20142,0.23438 -0.2266,1.78125 -0.25177,0.51562 0.20142,0.58595 -0.10075,0.28124 -0.10074,1.59376 -0.50355,1.38281 c 0.36926,0.40625 0.55389,0.6797 0.5539,0.82031 l -0.40284,0.67969 c 0.16784,0.3125 0.25177,0.69532 0.25178,1.14844 l 0.47836,-0.35156 0.20143,-0.60938 0.80567,-1.54687 0.37765,-1.10157 c 0.5539,-0.15624 0.83085,-0.49218 0.83086,-1.00781 0.10075,-0.0469 0.35247,-0.42968 0.75532,-1.14844 l 0.2266,-0.60938 c 0.0672,-0.20311 0.23497,-0.46092 0.50355,-0.77343 l 0.0504,-0.63282 -0.15106,-0.14062 0.35247,-0.28125 0.10075,0.14063 0.83085,-0.96095 c 0.26854,-0.12498 0.40283,-0.32029 0.40284,-0.58593 l 0,-0.1875 c 0.45317,-0.0625 0.67977,-0.35155 0.67978,-0.86719 l 0.15107,-0.0938 0,-0.23438 0.42801,-0.0938 0.0504,-0.63281 0.35248,0 -0.0504,-0.375 0.35248,0 0,-0.30469 c 0.23498,-0.15623 0.37765,-0.23436 0.42802,-0.23437 0.0336,10e-6 0.0504,0.0313 0.0504,0.0938 l 0,0.0938 0.0504,-0.42187 0.15106,0 c 0.40282,2e-5 0.60424,-0.30468 0.60426,-0.91406 l 0.62943,-0.46876 0.10075,0.1875 c 0.25176,-0.26561 0.41122,-0.58591 0.47837,-0.96093 l 0.35249,-0.14063 0.15106,-0.39843 0.40284,-0.0469 c 0.15104,-0.12498 0.34407,-0.20702 0.57907,-0.24609 0.23498,-0.0391 0.36925,-0.0664 0.40284,-0.082 l -0.10074,-0.18751 c 0.70495,-0.35935 1.13297,-0.53904 1.28405,-0.53906 0.21818,2e-5 0.49513,0.21096 0.83085,0.63281 0.25175,0.0313 0.37764,0.1719 0.37765,0.42188 l 0.4532,0.35156 c -2e-5,0.21877 0.27693,0.75783 0.83085,1.61719 l 0,3.75 -0.10074,1.96875 0.20142,0.46875 0,3.51562 -0.10074,0.63281 0,1.19532 0.10074,1.00781 -0.20142,1.19531 c 0.13426,0.12501 0.23497,0.60157 0.30213,1.4297 l 0.50355,0.58593 0,0.58594 0.42801,0.18749 z m 20.59506,-4.03124 c 0.25176,0.35937 0.37765,0.625 0.37767,0.79687 -2e-5,0.12501 -0.15529,0.39063 -0.46579,0.79688 -0.31053,0.40625 -0.54972,0.83593 -0.71755,1.28906 l -0.37765,0.0469 -0.55392,1.00781 -0.62942,0.0938 -1.38475,0.86719 -0.25178,0.51562 -0.42801,-0.0469 -0.4532,0.49219 -0.73014,0 -0.15106,0.23438 -0.35249,-0.0469 c -0.36928,0 -0.69658,0.15625 -0.98191,0.46875 l -0.32731,-0.23438 c -0.35249,0.15626 -0.63784,0.23438 -0.85603,0.23438 -0.38606,0 -0.69658,-0.0782 -0.93157,-0.23438 -0.16785,0.0313 -0.39444,0.0469 -0.67978,0.0469 l -0.30213,-0.23438 c -0.92317,-0.0469 -1.54421,-0.28906 -1.86312,-0.72657 l 0,-0.58594 -0.83086,-0.42187 -0.20141,-0.49219 c -0.0672,-0.15624 -0.25178,-0.35937 -0.5539,-0.60937 l 0,-0.37501 -0.57908,-2.27343 0.10074,-1.61718 0.20143,-0.91407 0,-1.00782 0.27695,-0.86719 -0.10074,-0.63281 c 0.18463,-0.14061 0.30212,-0.31639 0.35248,-0.52734 0.0504,-0.21093 0.15106,-0.44921 0.30213,-0.71484 -0.0672,-0.28124 -0.13428,-0.67968 -0.20143,-1.19532 l 0.4532,-0.35156 -0.4532,-0.46874 c 0.23499,-0.35936 0.35249,-0.58594 0.35249,-0.6797 l -0.25177,-1.42968 c 0,-0.34373 0.0504,-0.67968 0.15106,-1.00782 0.20141,0.28127 0.42801,0.4219 0.67979,0.42188 0.13428,2e-5 0.46158,-0.0625 0.98192,-0.1875 -0.0336,-0.0938 -0.0504,-0.20311 -0.0504,-0.32813 0,-0.21872 0.13427,-0.41404 0.40284,-0.58593 0.26855,-0.78123 0.64622,-1.51561 1.13298,-2.20313 0.3189,-0.23436 0.47836,-0.55466 0.47837,-0.96093 l 0.25178,0 0.25177,-0.46875 0.30213,-0.11719 c 0.0672,-0.20311 0.24337,-0.43749 0.52872,-0.70312 0.38604,-0.10937 0.84762,-0.47655 1.38475,-1.10157 0.0672,0.0313 0.2098,0.0469 0.42802,0.0469 0.0504,2e-5 0.18462,-0.17966 0.40283,-0.53906 0.58747,-0.18747 0.89799,-0.28123 0.93157,-0.28125 0.15105,2e-5 0.30211,0.0938 0.45319,0.28125 l 0.47837,-0.0938 0.25178,0.18751 0.30212,0 c 0.18462,0.51564 0.52871,0.77345 1.03227,0.77343 l 0.15107,0 c 0.0504,0.21877 0.15944,0.38284 0.3273,0.49219 l -0.2266,0.0938 c 0.58746,0.26565 0.88119,0.88284 0.88121,1.85157 l -0.15106,0.53906 0.15106,1.33594 -0.25177,0.21094 -0.57908,1.42969 -1.03227,1.1953 -0.0504,0.6797 c -1.22532,0.9375 -2.23241,1.57813 -3.02129,1.92187 -0.0672,0.18751 -0.17625,0.28126 -0.3273,0.28125 -0.0672,1e-5 -0.20143,-0.0313 -0.40284,-0.0938 l -1.13298,0.72656 -0.67979,0 -0.98191,0.42188 -0.42803,-0.23437 c -0.11749,-0.0625 -0.46997,-0.125 -1.05744,-0.18751 -0.52034,0.45314 -0.78051,1.03908 -0.7805,1.75782 l -0.35248,0.39843 c -0.0672,0.59376 -0.15107,1.00783 -0.25178,1.24219 l -0.27695,0.14063 0.27695,1.73437 -0.27695,0.23438 0.0504,0.53906 -0.0504,0.65625 c 0,0.10938 0.042,0.40625 0.12589,0.89062 0.084,0.48438 0.2182,0.76564 0.40284,0.84376 -0.084,0.21874 0.0797,0.48437 0.49095,0.79687 0.41124,0.3125 0.85183,0.53125 1.32182,0.65625 l 0,0.28125 1.33439,0.1875 1.91349,0.0938 1.28404,-0.14062 c 0.52032,-0.34375 0.89798,-0.55469 1.13298,-0.63281 l 0.40284,-0.56251 0.47837,0 0.0504,-0.23438 c 0.73853,-0.23436 1.14556,-0.39452 1.22111,-0.48046 0.0756,-0.086 0.11328,-0.16797 0.11329,-0.24609 0.10064,-0.18751 0.25176,-0.28125 0.45319,-0.28126 l 0.15106,-0.30468 c 0.75532,-0.10938 1.22529,-0.57031 1.40994,-1.38282 0.16783,-0.12499 0.36925,-0.18749 0.60425,-0.18749 l 0,0 z m -4.22979,-10.94532 c 0.13427,-0.0156 0.36086,-0.21092 0.67979,-0.58594 l 0.15106,-0.56249 c 0.41961,-0.65624 0.66299,-1.07421 0.73015,-1.25391 0.0672,-0.17967 0.10064,-0.40233 0.10075,-0.66797 -2e-5,-0.26561 -0.11751,-0.73436 -0.35248,-1.40625 l -1.03228,-0.32813 c -0.26856,0.0625 -0.44481,0.0938 -0.52872,0.0938 l -0.30213,-0.0938 c -0.25178,2e-5 -0.42802,0.14065 -0.52872,0.42188 -0.30214,10e-6 -0.76372,0.1172 -1.38476,0.35156 l -0.15106,0.32813 c -0.0672,-0.0313 -0.13429,-0.0469 -0.20142,-0.0469 -0.0504,2e-5 -0.0965,0.008 -0.13847,0.0234 -0.042,0.0156 -0.0797,0.0391 -0.1133,0.0703 -0.0336,0.0313 -0.0672,0.0664 -0.10074,0.10547 -0.0336,0.0391 -0.0629,0.0898 -0.0881,0.15234 -0.0252,0.0625 -0.0504,0.12893 -0.0756,0.19922 -0.0252,0.0703 -0.0504,0.14064 -0.0756,0.21094 -0.0252,0.0703 -0.1301,0.20705 -0.31472,0.41016 l -0.37766,0.42187 -0.73014,1.28906 -0.37767,0.3047 c -0.1175,0.0938 -0.20982,0.29688 -0.27695,0.60936 -0.0672,0.31252 -0.52034,1.06252 -1.35957,2.25001 l 0.35247,0.1875 0.17625,0.39844 0.85603,0.23437 c 0.48675,-0.31249 1.00709,-0.52343 1.56099,-0.63281 l 0.15107,-0.28126 c 0.18463,0.0625 0.3189,0.0938 0.40283,0.0938 0.16784,10e-6 0.3273,-0.0938 0.47837,-0.28124 l 0.60426,-0.0938 0.37766,-0.58593 0.35249,0 0.25177,-0.51563 c 0.45318,2e-5 0.88119,-0.19529 1.28404,-0.58593 l 0,-0.23438 z m 20.59506,9.39844 c 0.2182,0.14063 0.32729,0.28907 0.32731,0.44532 -2e-5,0.39063 -0.10911,0.60937 -0.32731,0.65624 -0.40285,0.60938 -0.81408,0.91407 -1.23369,0.91406 -1e-5,0.14064 -0.5623,0.67188 -1.68687,1.59376 -0.33571,0.0782 -0.55811,0.16797 -0.66721,0.26952 -0.10911,0.10157 -0.3399,0.30079 -0.69237,0.59767 -0.46999,0.0156 -0.78051,0.20312 -0.93156,0.56249 l -0.50355,0.14063 -0.20142,-0.0938 -0.15106,0.39844 -0.15107,0 c -0.25178,0 -0.61265,0.0938 -1.08262,0.28125 -0.46999,0.18749 -0.76372,0.29688 -0.88121,0.32812 l -0.52873,0.1875 -0.35247,0 -0.30214,-0.42187 -0.47836,-0.375 c -0.20143,-0.48437 -0.4616,-0.90625 -0.7805,-1.26562 l -0.15107,-1.14844 0.0504,-0.56251 -0.25177,-0.30468 0.0504,-1.38281 -0.0504,-1.19532 0.0504,-0.58593 c 0.10074,-0.14063 0.15106,-0.26562 0.15106,-0.375 0,-0.21875 -0.1175,-0.50781 -0.35248,-0.86719 0.13428,-1.32812 0.20142,-2.06249 0.20142,-2.20313 0,-0.28124 -0.13428,-0.5703 -0.40284,-0.86718 l 0.40284,-0.18751 0.15106,-1.82812 -0.10074,-0.77344 0.37766,-0.86718 -0.27695,-0.96095 c 0.28534,-0.34373 0.42802,-0.75779 0.42802,-1.24219 l 0,-1.59374 0.15106,-0.375 -0.0504,-2.34375 0.15106,-2.32031 c -0.23499,-0.56248 -0.31892,-1.16404 -0.25177,-1.80469 l 0.15106,-1.45313 -0.15106,-0.51562 0.25177,-2.17969 c 0.18463,-0.0625 0.38185,-0.14059 0.59167,-0.23438 0.20981,-0.0937 0.33988,-0.14059 0.39024,-0.14062 0.0336,3e-5 0.10075,0.0313 0.20143,0.0938 l 0.25177,0.77344 0.52872,0.42187 -0.37765,0.49219 0,0.18749 c -1e-5,0.18754 0.0588,0.38285 0.17623,0.58594 -0.0336,0.53128 -0.15945,0.79691 -0.37766,0.79688 l 0.15107,0.25781 c 0.0504,0.98441 0.14266,1.65627 0.27695,2.01563 l -0.42802,1.24218 0.32731,0.42188 c -0.38605,0.62502 -0.57908,1.2344 -0.57908,1.82813 0,0.31252 0.15106,0.50783 0.4532,0.58594 l -0.35249,0.91406 c 0.13427,0.29689 0.20141,0.48439 0.20142,0.56249 -1e-5,0.15628 -0.0672,0.36721 -0.20142,0.63282 l 0.10074,0.5625 -0.25177,1.54688 -0.0252,0.72656 c -0.0168,0.21877 -0.15947,0.72658 -0.42801,1.52344 l 0.25176,1.00781 -0.15106,1.82812 -0.27695,0.18751 0.32731,0.58593 -0.2266,0.91406 -0.20141,1.42969 0.20141,0.35156 -0.20141,0.14063 c 0.21819,0.25001 0.32729,0.63281 0.3273,1.14844 -1e-5,0.0938 -0.0756,0.28126 -0.2266,0.56249 l 0.2266,0.53906 -0.12589,0.72657 0.2266,0.51562 -0.10074,0.39844 0.5539,1.57032 0.62944,0.23437 c 0.60424,-0.28124 0.99869,-0.42187 1.18332,-0.42188 l 0.30214,0.0469 0.70496,-0.5625 c 0.084,-0.0781 0.29372,-0.16406 0.62943,-0.25781 0.16784,-0.28125 0.46159,-0.4375 0.88121,-0.46876 l 0.25178,-0.25781 0.37766,0.0469 0.10074,-0.23437 0.50355,-0.14063 0.47838,-0.32813 0.50354,-0.14062 c 0.0336,-0.0156 0.19721,-0.15625 0.49096,-0.42187 0.29373,-0.26562 0.55808,-0.46094 0.79309,-0.58594 -2e-5,-0.14062 0.10909,-0.25781 0.3273,-0.35157 0.0504,0.0625 0.11748,0.0938 0.20142,0.0938 0.11748,10e-6 0.28533,-0.0781 0.50354,-0.23437 l 0,0 z m 25.88233,3.60938 c -0.3693,1.23437 -0.83088,2.0625 -1.38475,2.48437 -0.40287,-0.125 -0.67982,-0.29687 -0.83086,-0.51563 l -0.93156,-1.35937 -0.35248,-0.75 -0.67979,-2.22656 0,-2.15625 -0.15107,-1.875 0.15107,-1.05469 -0.15107,-0.91406 0,-1.33594 -0.47837,-0.63281 -0.20141,0.39843 -0.40284,0.0469 -0.7805,1.6875 -0.93157,1.24219 -0.40283,0 -0.12589,0.49219 c -0.0504,0.1875 -0.14688,0.39844 -0.28953,0.63281 -0.14269,0.23438 -0.31474,0.51563 -0.51614,0.84374 l -1.38476,1.4297 -1.08262,1.5 -1.18333,1.14844 c -0.26858,0.42187 -0.5791,0.82031 -0.93157,1.19531 l -0.70496,0.51562 c -0.21821,0.17187 -0.50356,0.5 -0.85604,0.98438 l -0.8812,0.28124 c -0.10074,0.0313 -0.30213,0.20313 -0.60426,0.51563 l -0.60425,0.11719 c -0.18465,0.0156 -0.53712,0.17187 -1.05745,0.46875 l -0.45319,-0.0938 -0.15106,0.28125 -0.57909,-0.0469 -1.63653,-1.14844 c -0.26855,-0.34375 -0.46998,-0.8086 -0.60425,-1.39454 -0.13428,-0.58593 -0.32731,-0.88671 -0.57908,-0.90233 l -0.27695,0.0938 0.52873,-0.77344 -0.25178,-0.77344 0.20142,-0.60937 -0.10075,-0.91406 0.35249,-1.45312 0,-1.33595 0.35249,-0.49218 0,-1.19531 c 0.25176,-0.45312 0.37765,-0.82031 0.37765,-1.10157 l 0.20143,-0.14062 0,-0.86719 0.45318,-0.77344 0.0504,-0.65625 c 0.21819,-0.29685 0.37765,-0.61717 0.47836,-0.96094 l 0.25177,-1.45312 c 0.0504,-0.32811 0.24338,-0.61717 0.57908,-0.86719 l 0.0504,-0.51562 c 0.0336,-0.15624 0.14266,-0.36718 0.3273,-0.63281 0.18463,-0.26561 0.27694,-0.5078 0.27695,-0.72657 0.50354,-0.48435 0.93156,-0.82029 1.28405,-1.00781 l -0.10074,-0.1875 c 0.2182,-0.0469 0.34408,-0.12498 0.37766,-0.23437 0.0504,0.0313 0.15106,0.0469 0.30213,0.0469 0.13427,2e-5 0.23497,-0.0156 0.30213,-0.0469 l -0.25178,-0.0938 2.2156,-0.58594 c 0.31891,-0.0313 0.61265,-0.0547 0.88122,-0.0703 0.26854,-0.0156 0.40282,-0.0703 0.40283,-0.16406 l 0,-0.0469 0.83085,-0.0469 0.45319,0.23437 0.27695,-0.0938 c 0.0504,0.15627 0.18463,0.2344 0.40284,0.23438 0.0672,2e-5 0.13427,-0.0156 0.20143,-0.0469 l 0.83085,0.0469 0,0.21093 0.20141,-0.0938 0.7805,0.60937 0.7805,-0.1875 0.45319,0.77344 0.83085,0.63281 c 0.10064,0.0781 0.25176,0.31252 0.4532,0.70313 l 0.83085,0.42187 c 0.26854,0.26565 0.47835,0.39845 0.62943,0.39844 0.10064,1e-5 0.16783,-0.0625 0.20142,-0.1875 l 0.35249,-1.64063 0.40283,-0.86718 -0.15107,-1.24219 0.2266,-2.25001 -0.2266,-0.58593 c 0.25176,-0.28123 0.37765,-0.61716 0.37767,-1.00781 l -0.2266,-0.42188 0.17625,-1.3125 -0.17625,-1.33594 0.2266,-0.28125 -0.2266,-0.14062 c 0.18461,-0.15623 0.27693,-0.28904 0.27696,-0.39844 -3e-5,-0.0625 -0.0336,-0.15622 -0.10075,-0.28125 0.10064,-0.23434 0.15105,-0.46091 0.15107,-0.67969 -2e-5,-0.23434 -0.0504,-0.46871 -0.15107,-0.70312 l 0.25178,0 c -0.0672,-0.12497 -0.10074,-0.27341 -0.10074,-0.44532 -2e-5,-0.20308 0.16782,-0.39059 0.50355,-0.56249 l -0.20143,-0.11719 0.25178,-0.0469 c 0.18461,3e-5 0.3105,0.13284 0.37766,0.39843 0.25174,0.0469 0.40282,0.25003 0.45319,0.60937 l -0.25178,0 0.0504,0.77345 -0.0504,0.44531 -0.30212,0 0.5539,0.5625 -0.20142,0.67968 0.35248,0.77344 -0.25177,0.32813 c 0.16783,0.37502 0.25175,0.66408 0.25177,0.86718 -2e-5,0.18753 -0.0504,0.37503 -0.15106,0.5625 l 0.40284,0.30469 c -0.16788,0.0938 -0.2518,0.18752 -0.25178,0.28126 -2e-5,0.15627 0.14265,0.28126 0.42801,0.375 l 0,0.14062 c -2e-5,0.20315 -0.14268,0.38284 -0.42801,0.53906 l 0,0.42187 c -2e-5,0.78127 -0.1343,2.12503 -0.40284,4.03125 0.0336,0.0625 0.0504,0.17971 0.0504,0.35157 -4e-5,0.23439 -0.084,0.53908 -0.25178,0.91406 l 0.20141,0.42187 -0.30212,1.10157 -0.15106,1.17187 c -0.0168,0.15627 -0.12591,0.42189 -0.32732,0.79688 l 0.15108,0.53906 -0.30214,0.86719 0.30214,0.65625 -0.40284,1.5 0.25176,1.14844 -0.15106,0.67968 0.10074,0.60938 -0.30212,0.14062 c 0.33567,0.51564 0.50352,0.78908 0.50355,0.82032 -3e-5,0.14063 -0.10074,0.23438 -0.30214,0.28125 l 0.10075,0.30468 -0.10075,0.14062 0.35249,0.32813 -0.25178,0.77344 0.35249,1.05469 -0.15106,0.32812 0.15106,0.35157 -0.30214,0.86719 0.25178,0.23437 0.42801,0 0.35249,0.42188 0.73014,-0.18751 0.25177,0.375 0.88122,0.30469 z m -4.90958,-13.10157 -0.30214,-0.0938 -0.52871,-0.44532 -0.42803,-0.23438 c -0.0672,-0.0313 -0.19723,-0.23826 -0.39024,-0.62109 -0.19304,-0.38279 -0.43223,-0.69138 -0.71756,-0.92578 -0.18464,-0.0625 -0.33572,-0.15623 -0.45319,-0.28125 l 0,-0.32813 -0.7805,-0.14062 -0.75531,-0.39844 c -0.15109,-0.0937 -0.3567,-0.17185 -0.61685,-0.23437 -0.26018,-0.0625 -0.60847,-0.14061 -1.04486,-0.23438 l -1.56099,0.18751 -0.45319,0.23436 -0.47838,-0.32812 -0.80567,0.23438 -1.03227,0 -0.17625,0.42187 -0.30212,0.11719 c -1e-5,0.26565 0.0672,0.42189 0.20141,0.46875 -0.18463,0.28127 -0.61266,0.63283 -1.28404,1.05469 l -0.35249,0.86719 -0.47836,0.23437 -0.45319,1.3125 -0.15107,1.42968 -0.47837,0.42189 0,0.8203 c -0.36927,0.31252 -0.55391,0.57033 -0.5539,0.77344 l 0.10075,1.14844 -0.83086,1.5 -0.20142,1.05469 -0.0504,1.61718 0.15106,0.35157 -0.35249,0.65625 0.25178,0.39844 -0.40284,0.79687 c 0.28534,0.50001 0.52033,1.07813 0.70497,1.73438 l 0.47837,0.23437 -0.10074,0.30469 0.50355,0 c 0.35247,0.21875 0.56228,0.32812 0.62942,0.32812 0.0336,0 0.1133,-0.0782 0.2392,-0.23437 0.12587,-0.15625 0.39023,-0.23437 0.79308,-0.23437 l 0,0.18749 c 0.21819,-0.15624 0.35248,-0.30468 0.40284,-0.4453 0.26854,0 0.40282,-0.10938 0.40283,-0.32813 l 0.47837,-0.1875 0.20142,0.14063 0.15107,-0.53907 1.03227,-0.375 0.10074,-0.42188 0.73015,-0.39843 0,-0.23438 0.5539,-0.53906 0.17624,0.0703 c 0.13428,10e-6 0.20141,-0.11718 0.20143,-0.35156 l 0.35247,0 0,-0.28126 0.83085,-0.32811 -0.20141,-0.72657 0.5539,-0.32813 -0.35249,-0.35155 c 0.0672,0.0313 0.16785,0.0469 0.30213,0.0469 0.18462,10e-6 0.39443,-0.0782 0.62944,-0.23438 l 0.0504,-0.18749 0.55391,-0.0469 0.57908,-1.40624 0.50355,-0.46875 0.20141,-0.86719 0.62944,-0.1875 c 0.46996,-0.74999 0.84762,-1.23437 1.13298,-1.45312 l 0,-0.65625 0.47837,-0.18751 1.28404,-2.41406 0.50355,-0.46875 z m 29.60854,14.92969 -0.73014,0.32813 -0.15107,0.42187 c -0.28536,0.0625 -0.54552,0.14844 -0.7805,0.25781 l -0.25177,-0.16406 -0.37765,0.16406 -0.80568,-0.91406 0,-1.05468 -0.37766,-0.3047 0.10074,-1.47655 -0.30214,-3.07032 0.20143,-1.00782 -0.35249,-0.53906 0.4532,-0.23437 -0.30214,-0.42187 0.10075,-0.44532 0.25177,-0.1875 -0.0504,-0.58594 0.27695,0 0,-0.96093 0.10074,-0.46875 c -0.13429,-0.0313 -0.29375,-0.17968 -0.47836,-0.44532 l -0.80568,0.35157 c -0.21822,0.39064 -0.44481,0.64845 -0.67978,0.77343 l -0.0504,0.51563 -0.57909,0.23437 -0.10074,0.6797 -0.35249,0.23436 0,0.35157 c -0.33572,0.23438 -0.5791,0.51563 -0.73014,0.84375 l -0.35249,0.21094 -0.7805,1.28906 -1.23369,1.14844 -0.40284,0.63281 -1.08262,1.05469 -0.27695,0.5625 -1.48547,0.96093 -1.6617,1.82813 -0.5539,0.14063 c -0.16785,0.0313 -0.42802,0.19531 -0.7805,0.49219 l -0.15106,0 c -0.28535,0 -0.51195,-0.25782 -0.67979,-0.77344 -1.29244,-0.46875 -1.97222,-1.14063 -2.03937,-2.01563 l 0.40284,-0.23437 c -0.23499,-0.60938 -0.36926,-1.23438 -0.40284,-1.875 l -0.27695,-0.1875 0.17624,-0.25782 c 0.0672,-0.0938 0.1175,-0.2539 0.15107,-0.48047 0.0336,-0.22655 0.084,-0.54296 0.15107,-0.94922 l 0.35248,-1.78125 c -0.0336,-0.0625 -0.0504,-0.17186 -0.0504,-0.32812 -10e-6,-0.17187 0.0504,-0.35155 0.15107,-0.53906 -0.0672,-0.23437 -0.10075,-0.40625 -0.10075,-0.51563 0,-0.12499 0.0336,-0.28905 0.10075,-0.49219 l 0.20141,-0.0469 c 0.28535,-0.35937 0.42801,-0.66405 0.42802,-0.91406 -1e-5,-0.15624 -0.0545,-0.28124 -0.16365,-0.375 -0.10911,-0.0938 -0.16366,-0.15624 -0.16366,-0.1875 0,-0.10937 0.0924,-0.18749 0.27695,-0.23438 -0.25177,-0.0469 -0.37766,-0.14842 -0.37766,-0.30468 0,-0.15624 0.17624,-0.23437 0.52873,-0.23438 l 0,-0.0938 c 0,-0.34373 0.1049,-0.66014 0.31471,-0.94922 0.20981,-0.28904 0.32311,-0.48826 0.3399,-0.59766 l -0.35249,-0.0938 0.67979,-1.00781 0,-0.23437 c 0,-0.67186 0.23498,-1.24998 0.70497,-1.73437 l -0.0504,-0.86719 0.2266,-0.14063 c -0.1175,-0.1406 -0.17625,-0.29686 -0.17624,-0.46875 -1e-5,-0.0938 0.1091,-0.1406 0.32731,-0.14062 l 0,-0.77344 c 0.16784,-0.0469 0.25176,-0.12498 0.25177,-0.23438 -1e-5,-0.10935 -0.0168,-0.19529 -0.0504,-0.25781 0.10074,-0.1406 0.33568,-0.39842 0.70496,-0.77344 0.36926,-0.37498 0.61264,-0.68748 0.73014,-0.93749 l 0.15106,0 c 0.38605,2e-5 0.57908,-0.0859 0.57908,-0.25781 0,-0.0625 -0.0504,-0.14061 -0.15106,-0.23438 0.68817,2e-5 1.04905,-0.12498 1.08262,-0.375 l 0.93157,-0.44532 2.6688,0.21094 0,0.1875 2.16525,0.42188 0.20142,0 c 0.31889,2e-5 0.47835,0.13283 0.47837,0.39844 l 0.25177,-0.0938 c 0.0838,0.28128 0.27693,0.4219 0.57908,0.42188 l 0.25178,-0.0469 0.45318,0.42187 1.08263,0.25781 0,0.42188 c 0.48674,-0.29686 1.10778,-0.55467 1.86313,-0.77344 l 0,0.77344 -0.25178,0 0.50355,0.23438 -0.10074,0.0938 0.40284,1.21875 -0.4532,0.46876 -0.20142,0.79687 c -0.0672,0.26564 -0.22662,0.59376 -0.47837,0.98437 l 0.32731,0.60938 c -0.0336,0.0469 -0.1301,0.17189 -0.28954,0.375 -0.15947,0.20314 -0.2392,0.56252 -0.23918,1.07812 0.10064,0.0469 0.15104,0.12501 0.15106,0.23438 l -0.10074,0.39843 0.0504,0.32813 -0.15107,0.51563 0.10075,0.44531 -0.30213,0.32812 0.10074,1.05469 -0.15106,0.14062 0.15106,0.21094 -0.15106,0.14063 c 0.0336,0.0313 0.0504,0.0938 0.0504,0.1875 -2e-5,0.14064 -0.0504,0.28126 -0.15106,0.42187 l 0.15106,0.30469 -0.25177,0.42188 c -0.13429,0.0781 -0.20144,0.30469 -0.20142,0.67968 l 0.20142,0.60938 -0.47837,0.58593 c 0.16784,0.32814 0.32728,0.53907 0.47837,0.63281 -0.25179,0.32814 -0.46161,0.94533 -0.62943,1.85157 l 0.42801,0.0938 -0.0504,0.25781 c 0.0336,0.0469 0.0504,0.15626 0.0504,0.32812 -2e-5,0.25001 -0.1259,0.57032 -0.37766,0.96095 l 0.3273,0 0.15108,0.72656 1.03226,0.0938 0.35249,0.60937 c -0.10074,0.0625 -0.15108,0.11719 -0.15106,0.16407 -2e-5,0.12499 0.16782,0.28125 0.50354,0.46874 l -0.0504,0 c -0.0672,0 -0.10074,0.0156 -0.10074,0.0469 -2e-5,0.0782 0.14266,0.22656 0.42801,0.44531 l 0,0 z m -2.64362,-17.25 -0.30213,-0.86719 -0.83085,-0.23438 -1.43511,-1.1953 c -0.21822,-0.12499 -0.39446,-0.18749 -0.52873,-0.18751 -0.0839,2e-5 -0.21821,0.0313 -0.40283,0.0938 l -0.25178,-0.23437 -0.83085,0 -0.25178,-0.30469 -0.57907,0.21093 -0.25178,-0.21093 -0.42801,0.11719 -0.80568,-0.11719 c -0.38605,2e-5 -0.99032,0.17971 -1.81276,0.53906 l 0.10074,0.18751 -0.4532,0.14062 -0.10074,0.1875 -0.57908,0.0703 0,0.28125 c -0.3357,0.18752 -0.73015,0.69533 -1.18332,1.52344 -0.28536,0.96876 -0.59588,1.78907 -0.93157,2.46093 l 0.40284,0.18751 -0.65461,0.53906 0.20141,0.375 c -0.30213,0.42189 -0.4532,0.91408 -0.45319,1.47656 l 0,0.25782 -0.37766,0.51562 0,0.82031 c -0.26857,0.28126 -0.41963,0.57033 -0.45319,0.86719 l -0.20142,0.1875 0,0.86719 -0.17624,0.23437 c 0,0.31251 -0.0672,0.74219 -0.20141,1.28907 l 0.27695,0.58593 c -0.21822,0.0781 -0.4616,0.27344 -0.73015,0.58594 l 0.20142,0.375 -0.30213,0.375 0.40283,0.96093 -0.45319,0.58594 0.0504,1.14844 -0.15107,0.53906 0.25178,0.14063 0.10074,0.32812 c 0.28533,0.10938 0.52871,0.28907 0.73014,0.53906 l 1.18334,-0.25781 c 0.21819,-0.46874 0.59585,-0.71875 1.13297,-0.75 l -0.10074,-0.35155 c 0.52032,-0.12501 0.79307,-0.19141 0.81826,-0.19923 0.0252,-0.008 0.0629,-0.0976 0.1133,-0.26953 0.0504,-0.17187 0.20141,-0.33593 0.45319,-0.49219 l 0.10075,0 c 0.10064,0 0.15105,-0.0625 0.15106,-0.1875 l 0.93156,-1.0078 -0.20142,0 0.5539,-0.46876 c 0.18462,-0.17187 0.46157,-0.3203 0.83085,-0.44531 l 0.37766,-0.91406 c 0.63781,-0.25 0.9987,-0.58594 1.08263,-1.00782 l 0.30212,0 0.50355,-0.60937 -0.10074,-0.39844 0.47838,-0.0938 c -0.0672,-0.10937 -0.10075,-0.18749 -0.10075,-0.23437 -1e-5,-0.0469 0.11748,-0.22265 0.35249,-0.52735 0.23497,-0.30468 0.41961,-0.55858 0.5539,-0.76172 l 0.22659,0.0938 c 0.0504,-0.37499 0.23497,-0.66405 0.5539,-0.86719 0.0672,-0.24998 0.2014,-0.4492 0.40284,-0.59765 0.2014,-0.14843 0.34408,-0.22264 0.42802,-0.22265 l 0.35248,0 0.0504,-0.58595 c 0.0672,-0.0625 0.10074,-0.12498 0.10074,-0.18749 -1e-5,-0.0938 -0.0504,-0.1875 -0.15106,-0.28126 0.30212,-0.46873 0.5455,-0.7578 0.73014,-0.86718 l 0.10074,-0.51563 0.35249,-0.25781 -0.10074,-0.42188 c 0.2014,-0.29685 0.32729,-0.58592 0.37766,-0.86718 l 0.45319,-0.42188 0.10074,-1.26562 z m 15.58478,15.84375 -0.15106,0.14062 0.10074,0.53907 -0.27695,0.14063 0,0.375 c -0.18465,0.0313 -0.50356,0.30468 -0.95674,0.82031 -0.46999,0.0313 -0.92318,0.10937 -1.35958,0.23437 -0.1175,-0.0156 -0.20562,-0.0898 -0.26436,-0.22265 -0.0588,-0.13282 -0.13849,-0.19922 -0.23919,-0.19922 l -0.15106,0 c -1e-5,-0.125 -0.0336,-0.1875 -0.10074,-0.1875 -0.0504,0 -0.10911,0.0313 -0.17624,0.0938 l -0.10074,-0.18751 -0.20142,-0.0469 0.0504,-0.25781 -0.20142,-0.18751 0.15107,-0.28124 -0.35248,-0.0938 0,-1.24218 c 0,-0.18751 0.20561,-0.38673 0.61684,-0.59767 0.41122,-0.21093 0.6504,-0.41796 0.71756,-0.62109 l 0.20141,-0.14062 c 0.3357,0.14062 0.61684,0.22266 0.84344,0.24609 0.22659,0.0234 0.45738,0.14454 0.69239,0.36328 0.23497,0.21875 0.51192,0.39844 0.83085,0.53906 l 0.3273,0.77344 z m 36.80927,-5.46094 c 0.0672,0.25001 -0.1427,0.50001 -0.62943,0.75 l 0.0756,0.16406 c -3e-5,0.15626 -0.22662,0.48829 -0.67979,0.9961 -0.45322,0.50781 -0.67982,0.89454 -0.67979,1.16015 l -0.5539,0.14063 c -0.0168,0.65626 -0.32733,1.03907 -0.93156,1.14843 -0.0504,0.18751 -0.13431,0.28126 -0.25177,0.28126 l -0.10074,0 c -0.0504,0.26563 -0.24341,0.39844 -0.57908,0.39844 l -0.30213,0.56249 -0.73014,0.14063 -0.60427,0.375 c -0.084,0.0469 -0.19304,0.086 -0.3273,0.11719 l -1.13297,0.1875 -0.40284,-0.0469 -0.37766,0.0469 -0.15107,-0.1875 -0.45319,-0.0469 -0.57908,-0.67969 -0.25178,0 c -0.13429,-0.125 -0.20143,-0.29688 -0.20141,-0.51563 -0.55392,-0.5625 -0.83087,-0.99999 -0.83085,-1.3125 l 0,-0.375 -0.35249,-0.63281 0,-0.28125 0.25178,-0.14062 -0.20142,-0.6797 -0.37766,-0.86718 0.0756,-1.28907 -0.52872,-0.77343 0,-1.19531 c -0.48679,-2.32812 -0.73017,-3.74999 -0.73015,-4.26563 l 0,-0.1875 c -0.0672,-0.24998 -0.10074,-0.42967 -0.10074,-0.53907 -10e-6,-0.12498 0.0168,-0.21873 0.0504,-0.28124 -0.38608,-0.54686 -0.58749,-0.99218 -0.60426,-1.33594 l -0.25178,-0.21094 -1.08261,1.05469 -0.52873,0.67969 -1.81277,2.01563 -0.70497,1.19531 c -0.25178,0.51563 -0.45321,0.89454 -0.60425,1.13671 -0.15108,0.2422 -0.48678,0.59767 -1.0071,1.06641 l 0.15107,0.44531 -0.35248,0.91406 -0.40284,0.0469 0,0.42188 -0.27695,0 -0.98191,1.10156 c -0.0336,0.53126 -0.25179,0.83594 -0.65462,0.91406 -0.15107,0.20313 -0.28535,0.50001 -0.40283,0.89063 -0.11751,0.39063 -0.31054,0.59375 -0.57909,0.60937 l -0.20141,0.1875 c -0.31893,0.51563 -0.61686,0.91016 -0.8938,1.1836 -0.27696,0.27344 -0.66721,0.58203 -1.17074,0.92578 -0.11751,0.53124 -0.32732,0.85156 -0.62944,0.96093 l -0.0504,0.23438 c -0.0168,0.21875 -0.10075,0.42578 -0.25178,0.6211 -0.15107,0.19531 -0.56229,0.37109 -1.23369,0.52733 -0.25177,-0.0313 -0.4448,-0.29686 -0.57907,-0.79687 -0.13429,-0.5 -0.33571,-0.80469 -0.60427,-0.91406 l -0.15106,-0.30469 0.40284,-0.60937 -0.0504,-0.58594 0.25177,-0.23438 -0.25177,-0.42187 0.0504,-0.58594 -0.40284,-1.05468 0.35249,-0.63282 -0.20143,-0.65625 c 0.23499,-0.4375 0.35248,-1.09375 0.35249,-1.96875 l 0,-0.25781 c -1e-5,-0.0782 -0.10074,-0.26562 -0.30212,-0.5625 0.26854,-0.20311 0.40282,-0.39843 0.40283,-0.58594 l -0.10074,-0.75 0.30213,-1.82812 -0.20142,-0.35157 0.0504,-0.75 -0.25177,-0.44531 0.20142,-1.52344 -0.10074,-0.53906 0.15106,-0.86719 -0.15106,-1.24219 0.35248,-0.63281 c 0.62104,0.17189 0.96093,0.28908 1.01968,0.35156 0.0588,0.0625 0.10074,0.20706 0.12589,0.4336 0.0252,0.22658 0.0377,0.58986 0.0377,1.08984 l 0.42802,0.63281 -0.15107,0.91406 0.20143,1.96876 -0.35249,1.05468 0.15106,1.24219 0,0.58594 -0.47836,0.70312 0.3273,1.00782 c -0.10074,0.14063 -0.2266,0.57813 -0.37766,1.3125 l 0.25177,0.5625 c -0.28534,0.85938 -0.41963,1.48438 -0.40284,1.875 l 0.0504,1.73438 0.15107,0.23436 0.62943,-0.28124 0.50355,0 0.27695,-1.05469 c 0.38604,-0.10937 0.62103,-0.28906 0.70496,-0.53906 0.0504,-0.375 0.31051,-0.56249 0.7805,-0.5625 0.0504,-0.35937 0.16784,-0.60156 0.35248,-0.72657 0.13427,10e-6 0.29373,-0.22655 0.47837,-0.67968 0.35248,-0.32812 0.62943,-0.66406 0.83085,-1.00782 l 0,-0.65624 0.0504,0 c 0.13427,10e-6 0.28953,-0.11327 0.46578,-0.33985 0.17624,-0.22655 0.39863,-0.33984 0.6672,-0.33984 0.11748,-0.40624 0.26855,-0.6953 0.45319,-0.86719 l 0.73015,-0.82031 0.6546,-1.33594 c -0.0672,-0.24998 -0.10074,-0.41405 -0.10074,-0.49219 -2e-5,-0.0938 0.0504,-0.14061 0.15106,-0.14062 0.68817,-0.42186 1.03226,-0.83593 1.03227,-1.24219 l 0,-0.58594 c 0.52032,-0.18749 0.78049,-0.35936 0.7805,-0.51562 -1e-5,-0.0625 -0.0252,-0.15233 -0.0756,-0.26954 -0.0504,-0.11717 -0.0756,-0.19138 -0.0756,-0.22265 -10e-6,-0.15624 0.0672,-0.23436 0.20142,-0.23438 0.11748,2e-5 0.25176,0.0469 0.40284,0.14062 0.25176,-0.85935 0.63781,-1.28904 1.15816,-1.28906 0.10064,2e-5 0.25175,0.0313 0.45319,0.0938 -1e-5,-0.45311 0.15105,-0.8203 0.4532,-1.10157 0.0672,-0.20311 0.46995,-0.44529 1.2085,-0.72656 l 0.25177,-0.375 0.20143,0 c 0.28532,0.35939 0.5287,0.58595 0.73014,0.67969 l 0.10074,0.32813 0.25178,0.0938 0.10074,0.91407 0.67979,0.375 -0.2266,0.82031 0.37766,1.5 0,1.38281 0.35248,1.64063 0.15106,1.71093 0.52872,1.59375 0.10075,1.59375 c 0.0168,0.0313 0.10488,0.18361 0.26436,0.45704 0.15943,0.27344 0.27273,0.6289 0.33989,1.06641 l 0.2266,0.14062 0,0.72655 0.45319,0.46876 -0.10075,0.35156 0.35248,0.1875 0,0.23437 c 0.3189,0.18751 0.59585,0.28126 0.83085,0.28125 0.28533,1e-5 0.54549,-0.0625 0.7805,-0.18749 0.11747,0.0625 0.2014,0.0938 0.25178,0.0938 0.15104,0 0.3021,-0.12501 0.45319,-0.375 0.48673,-0.0469 0.73011,-0.17188 0.73015,-0.375 l 0,-0.11719 c 0.0503,-0.10937 0.39441,-0.26563 1.03226,-0.46875 0.16782,-0.1875 0.34406,-0.34375 0.52873,-0.46876 l -0.0504,-0.11718 c 0.0336,-0.0782 0.0965,-0.16796 0.18884,-0.26953 0.0922,-0.10156 0.25594,-0.24218 0.49095,-0.42187 0.23496,-0.17969 0.39441,-0.34766 0.47837,-0.50391 l 0.27695,-0.51563 c 0.21817,-0.28125 0.54548,-0.73437 0.98192,-1.35938 l 0.70497,-0.32811 0.47836,0 0.15106,0.67968 z m 16.34011,2.97657 c 0.25176,0.35937 0.37764,0.625 0.37765,0.79687 -10e-6,0.12501 -0.15527,0.39063 -0.46577,0.79688 -0.31054,0.40625 -0.54972,0.83593 -0.71755,1.28906 l -0.37767,0.0469 -0.5539,1.00781 -0.62944,0.0938 -1.38475,0.86719 -0.25177,0.51562 -0.42802,-0.0469 -0.45318,0.49219 -0.73015,0 -0.15107,0.23438 -0.35247,-0.0469 c -0.36928,0 -0.69659,0.15625 -0.98193,0.46875 l -0.3273,-0.23438 c -0.35249,0.15626 -0.63783,0.23438 -0.85603,0.23438 -0.38606,0 -0.69657,-0.0782 -0.93156,-0.23438 -0.16785,0.0313 -0.39445,0.0469 -0.67979,0.0469 l -0.30212,-0.23438 c -0.92318,-0.0469 -1.54422,-0.28906 -1.86313,-0.72657 l 0,-0.58594 -0.83085,-0.42187 -0.20142,-0.49219 c -0.0672,-0.15624 -0.25178,-0.35937 -0.55391,-0.60937 l 0,-0.37501 -0.57907,-2.27343 0.10074,-1.61718 0.20142,-0.91407 0,-1.00782 0.27695,-0.86719 -0.10075,-0.63281 c 0.18463,-0.14061 0.30212,-0.31639 0.35248,-0.52734 0.0504,-0.21093 0.15106,-0.44921 0.30212,-0.71484 -0.0672,-0.28124 -0.13428,-0.67968 -0.20141,-1.19532 l 0.45319,-0.35156 -0.45319,-0.46874 c 0.23499,-0.35936 0.35248,-0.58594 0.35248,-0.6797 l -0.25177,-1.42968 c -1e-5,-0.34373 0.0504,-0.67968 0.15107,-1.00782 0.20141,0.28127 0.428,0.4219 0.67978,0.42188 0.13428,2e-5 0.46158,-0.0625 0.98192,-0.1875 -0.0336,-0.0938 -0.0504,-0.20311 -0.0504,-0.32813 -10e-6,-0.21872 0.13427,-0.41404 0.40283,-0.58593 0.26855,-0.78123 0.64621,-1.51561 1.13298,-2.20313 0.31891,-0.23436 0.47837,-0.55466 0.47837,-0.96093 l 0.25177,0 0.25178,-0.46875 0.30212,-0.11719 c 0.0672,-0.20311 0.24338,-0.43749 0.52873,-0.70312 0.38604,-0.10937 0.84763,-0.47655 1.38475,-1.10157 0.0672,0.0313 0.20981,0.0469 0.42802,0.0469 0.0504,2e-5 0.18463,-0.17966 0.40284,-0.53906 0.58745,-0.18747 0.89797,-0.28123 0.93155,-0.28125 0.15106,2e-5 0.30212,0.0938 0.4532,0.28125 l 0.47837,-0.0938 0.25177,0.18751 0.30213,0 c 0.18462,0.51564 0.52871,0.77345 1.03227,0.77343 l 0.15107,0 c 0.0504,0.21877 0.15943,0.38284 0.3273,0.49219 l -0.22659,0.0938 c 0.58745,0.26565 0.88119,0.88284 0.8812,1.85157 l -0.15106,0.53906 0.15106,1.33594 -0.25178,0.21094 -0.57907,1.42969 -1.03227,1.1953 -0.0504,0.6797 c -1.2253,0.9375 -2.2324,1.57813 -3.02128,1.92187 -0.0672,0.18751 -0.17625,0.28126 -0.3273,0.28125 -0.0672,1e-5 -0.20143,-0.0313 -0.40284,-0.0938 l -1.13298,0.72656 -0.67979,0 -0.98192,0.42188 -0.42801,-0.23437 c -0.1175,-0.0625 -0.46999,-0.125 -1.05745,-0.18751 -0.52034,0.45314 -0.7805,1.03908 -0.7805,1.75782 l -0.35248,0.39843 c -0.0672,0.59376 -0.15107,1.00783 -0.25177,1.24219 l -0.27695,0.14063 0.27695,1.73437 -0.27695,0.23438 0.0504,0.53906 -0.0504,0.65625 c -10e-6,0.10938 0.042,0.40625 0.12589,0.89062 0.084,0.48438 0.21819,0.76564 0.40283,0.84376 -0.0839,0.21874 0.0797,0.48437 0.49096,0.79687 0.41122,0.3125 0.85183,0.53125 1.32181,0.65625 l 0,0.28125 1.3344,0.1875 1.91348,0.0938 1.28404,-0.14062 c 0.52032,-0.34375 0.89798,-0.55469 1.13298,-0.63281 l 0.40284,-0.56251 0.47837,0 0.0504,-0.23438 c 0.73851,-0.23436 1.14555,-0.39452 1.22109,-0.48046 0.0756,-0.086 0.11329,-0.16797 0.1133,-0.24609 0.10074,-0.18751 0.25176,-0.28125 0.4532,-0.28126 l 0.15106,-0.30468 c 0.7553,-0.10938 1.22528,-0.57031 1.40993,-1.38282 0.16783,-0.12499 0.36925,-0.18749 0.60426,-0.18749 l 0,0 z m -4.22979,-10.94532 c 0.13426,-0.0156 0.36086,-0.21092 0.67979,-0.58594 l 0.15106,-0.56249 c 0.41961,-0.65624 0.66299,-1.07421 0.73014,-1.25391 0.0672,-0.17967 0.10064,-0.40233 0.10074,-0.66797 -2e-5,-0.26561 -0.11751,-0.73436 -0.35249,-1.40625 l -1.03226,-0.32813 c -0.26858,0.0625 -0.44481,0.0938 -0.52873,0.0938 l -0.30213,-0.0938 c -0.25178,2e-5 -0.42803,0.14065 -0.52872,0.42188 -0.30214,10e-6 -0.76373,0.1172 -1.38476,0.35156 l -0.15106,0.32813 c -0.0672,-0.0313 -0.13428,-0.0469 -0.20142,-0.0469 -0.0504,2e-5 -0.0965,0.008 -0.13848,0.0234 -0.042,0.0156 -0.0797,0.0391 -0.11329,0.0703 -0.0336,0.0313 -0.0672,0.0664 -0.10074,0.10547 -0.0336,0.0391 -0.0629,0.0898 -0.0881,0.15234 -0.0252,0.0625 -0.0504,0.12893 -0.0756,0.19922 -0.0252,0.0703 -0.0504,0.14064 -0.0756,0.21094 -0.0252,0.0703 -0.13009,0.20705 -0.31472,0.41016 l -0.37766,0.42187 -0.73014,1.28906 -0.37766,0.3047 c -0.1175,0.0938 -0.20982,0.29688 -0.27695,0.60936 -0.0672,0.31252 -0.52034,1.06252 -1.35958,2.25001 l 0.35249,0.1875 0.17624,0.39844 0.85603,0.23437 c 0.48675,-0.31249 1.00709,-0.52343 1.561,-0.63281 l 0.15106,-0.28126 c 0.18462,0.0625 0.31891,0.0938 0.40284,0.0938 0.16784,10e-6 0.32729,-0.0938 0.47836,-0.28124 l 0.60426,-0.0938 0.37767,-0.58593 0.35247,0 0.25178,-0.51563 c 0.45318,2e-5 0.88119,-0.19529 1.28405,-0.58593 l 0,-0.23438 z m 13.49504,-2.74219 3.55002,0.14062 3.39894,-0.14062 0.83085,0.0469 0.35248,-0.0469 1.86312,0 c 0.35247,2e-5 0.52871,0.14064 0.52873,0.42188 -2e-5,0.32814 -0.27697,0.53908 -0.83085,0.63281 -0.10075,-0.0625 -0.2434,-0.0937 -0.42802,-0.0938 -0.235,2e-5 -0.45321,0.0781 -0.65461,0.23438 l -0.73015,-0.14062 -1.38475,0.0469 c -0.63783,0.32814 -1.27567,0.4922 -1.91348,0.49219 l -0.98191,-0.16406 -0.50355,0.4453 -0.47837,0 0,-0.28124 -0.88121,0.375 -0.45319,0 -0.15106,0.42187 c -0.28536,-0.0782 -0.7889,-0.14061 -1.51064,-0.1875 -0.0504,0.18752 -0.13429,0.28127 -0.25178,0.28125 -0.0672,2e-5 -0.16785,-0.0625 -0.30212,-0.1875 l -0.73015,0.0938 -0.50354,0.49219 -0.15107,2.34375 0.10074,1.40625 -0.15106,1.80468 0.0504,2.01563 0.15107,0.96094 0,0.86718 0.60425,1.19532 0,0.21094 c -10e-6,0.54688 0.34408,1.07031 1.03228,1.57031 l 0.15106,0.39843 0.93156,0.18751 0.67979,0.67968 1.91348,0.32813 2.51773,-0.53907 0.73014,0.21094 1.7876,-0.77343 0.67979,0.0938 c 0.23496,0.21874 0.35246,0.42187 0.35247,0.60937 -10e-6,0.23437 -0.21821,0.49218 -0.65461,0.77343 l -0.37765,-0.14062 -0.80568,0.63281 -1.71206,0.18751 -0.57908,0.32812 -0.60426,-0.32812 c -0.57069,0.28124 -1.17495,0.42187 -1.81276,0.42187 l -1.03228,-0.1875 -0.5539,0 -1.86312,-1.00781 -0.88121,-1.14844 -0.60425,-0.63281 -0.93156,-2.29687 -0.42802,-2.15626 0.22659,-0.86718 -0.42801,-0.46876 0.20142,-0.53906 -0.20142,-0.86718 0.52872,-0.37501 -0.22659,-0.44531 0.12588,-0.5625 -0.22659,-0.63281 0.10075,-0.91406 -0.10075,-0.46875 0.22659,-0.14063 0,-1.73438 c -0.10074,-0.42186 -0.24338,-0.63279 -0.42801,-0.63281 -0.11749,2e-5 -0.21821,0.0625 -0.30213,0.18751 l -0.57907,-0.23438 -0.80568,0.1875 -0.83085,-0.5625 -0.42801,0 c -0.40284,10e-6 -0.60427,-0.21092 -0.60427,-0.63281 l 0.0504,-0.72657 -0.35249,-0.23437 0.20141,-0.42188 0.75533,0.0938 0.57907,-0.0938 0.83086,0.23438 2.16525,0 0.10074,-1.10157 0,-1.10156 -0.35249,-0.82031 0.40284,-0.28125 c 0.0672,-0.18748 0.10074,-0.30467 0.10074,-0.35156 0,-0.20311 -0.13428,-0.37498 -0.40283,-0.51563 l 0.10074,-1.875 -0.42801,-0.58594 0.10074,-0.42187 c -0.33571,-0.0625 -0.50356,-0.18748 -0.50355,-0.375 l 0.35248,-1.26563 c 0.28534,-0.34372 0.4448,-0.56247 0.47837,-0.65624 1.02387,0.46877 1.53582,0.74221 1.53582,0.8203 l 0,0.0469 -0.20142,0.46875 c 0.23499,0.45315 0.35248,0.80471 0.35248,1.05469 l 0,0.14063 c -0.10074,0.25002 -0.15106,0.47658 -0.15106,0.67968 0,0.15627 0.0504,0.28128 0.15106,0.375 l -0.0504,0.39844 0.0504,0.51562 -0.45319,0.67969 0.30213,1.19531 -0.20142,1.45313 0.20142,0.28125 -0.30213,0.42187 0.40284,1.19532 0.93156,0 0.62943,-0.42188 z"
         id="text2424"
         style="font-size:49.7497139px;font-style:normal;font-variant:normal;font-weight:normal;font-stretch:normal;text-align:start;line-height:100%;writing-mode:lr-tb;text-anchor:start;fill:#000000;fill-opacity:1;stroke:none;font-family:Bradley Hand ITC;-inkscape-font-specification:Bradley Hand ITC" />
    </g>
  </g>
</svg>
