<?xml version="1.0" encoding="UTF-8" standalone="no"?>
<!-- Created with Inkscape (http://www.inkscape.org/) -->
<svg
   xmlns:dc="http://purl.org/dc/elements/1.1/"
   xmlns:cc="http://creativecommons.org/ns#"
   xmlns:rdf="http://www.w3.org/1999/02/22-rdf-syntax-ns#"
   xmlns:svg="http://www.w3.org/2000/svg"
   xmlns="http://www.w3.org/2000/svg"
   xmlns:sodipodi="http://sodipodi.sourceforge.net/DTD/sodipodi-0.dtd"
   xmlns:inkscape="http://www.inkscape.org/namespaces/inkscape"
   width="744.09448819"
   height="1052.3622047"
   id="svg2"
   sodipodi:version="0.32"
   inkscape:version="0.46"
   sodipodi:docname="sjalfhelda.svg"
   inkscape:output_extension="org.inkscape.output.svg.inkscape">
  <defs
     id="defs4">
    <inkscape:perspective
       sodipodi:type="inkscape:persp3d"
       inkscape:vp_x="0 : 526.18109 : 1"
       inkscape:vp_y="0 : 1000 : 0"
       inkscape:vp_z="744.09448 : 526.18109 : 1"
       inkscape:persp3d-origin="372.04724 : 350.78739 : 1"
       id="perspective10" />
    <inkscape:perspective
       id="perspective2447"
       inkscape:persp3d-origin="372.04724 : 350.78739 : 1"
       inkscape:vp_z="744.09448 : 526.18109 : 1"
       inkscape:vp_y="0 : 1000 : 0"
       inkscape:vp_x="0 : 526.18109 : 1"
       sodipodi:type="inkscape:persp3d" />
  </defs>
  <sodipodi:namedview
     id="base"
     pagecolor="#ffffff"
     bordercolor="#666666"
     borderopacity="1.0"
     gridtolerance="10000"
     guidetolerance="10"
     objecttolerance="10"
     inkscape:pageopacity="0.0"
     inkscape:pageshadow="2"
     inkscape:zoom="0.7"
     inkscape:cx="375"
     inkscape:cy="584.08101"
     inkscape:document-units="px"
     inkscape:current-layer="layer1"
     showgrid="false"
     inkscape:window-width="645"
     inkscape:window-height="717"
     inkscape:window-x="25"
     inkscape:window-y="24" />
  <metadata
     id="metadata7">
    <rdf:RDF>
      <cc:Work
         rdf:about="">
        <dc:format>image/svg+xml</dc:format>
        <dc:type
           rdf:resource="http://purl.org/dc/dcmitype/StillImage" />
      </cc:Work>
    </rdf:RDF>
  </metadata>
  <g
     inkscape:label="Layer 1"
     inkscape:groupmode="layer"
     id="layer1">
    <path
       style="fill:#000000"
       d="M 230.95958,655.42834 C 280.22575,613.8953 293.93798,598.85742 305.13538,574.08131 C 310.58913,562.01398 315.05542,557.69603 314.9961,564.54809 C 314.98104,566.28507 313.32006,573.13979 311.30502,579.7808 C 302.22207,609.71537 304.66778,647.22113 315.84303,649.37306 C 325.0562,651.14717 337.34367,633.38706 346.70546,604.765 C 352.52166,586.98296 354.50218,590.02906 349.13294,608.4986 C 341.38148,635.16269 327.00578,657.39727 317.51766,657.39727 C 305.71964,657.39727 297.14438,636.24855 299.17452,612.15865 C 300.05559,601.70368 299.56357,596.76107 297.64173,596.76107 C 296.08503,596.76107 294.81137,597.82247 294.81137,599.1197 C 294.81137,603.66282 254.02787,644.51193 240.58063,653.4377 C 224.53611,664.08744 219.43667,665.14254 230.95958,655.42834 z M 518.03491,653.41542 C 505.92551,645.1954 479.99778,619.67915 467.51356,603.69589 C 464.53441,599.88174 461.54788,596.76107 460.87678,596.76107 C 460.20569,596.76107 459.79604,606.14074 459.96643,617.60477 C 460.32554,641.76614 455.61738,653.72977 444.6683,656.47782 C 435.30139,658.82877 423.84676,645.77463 415.41075,623.13481 C 408.0192,603.29796 404.00546,585.5282 408.31224,591.70806 C 409.76486,593.79243 410.97079,597.45503 410.99206,599.84718 C 411.04906,606.25446 422.86102,631.86668 430.19105,641.47681 C 437.04294,650.46011 443.88434,652.10568 448.95899,645.99109 C 456.28766,637.16057 454.36531,599.37538 444.94406,567.0746 C 441.56865,555.50201 448.43436,561.90613 456.55486,577.90481 C 461.16523,586.98796 470.15786,600.34687 476.53846,607.59128 C 491.02626,624.04039 515.61283,647.26478 518.65145,647.37108 C 521.24941,647.46195 534.82965,658.95756 534.82965,661.06584 C 534.82965,663.89469 530.70403,662.01537 518.03491,653.41542 z M 591.88543,593.90642 C 589.61162,520.84607 588.58419,504.6605 585.58813,494.7028 C 584.28994,490.38816 580.75111,477.19407 577.72405,465.38264 C 574.69699,453.57123 568.84037,433.42237 564.70935,420.60741 C 555.2525,391.27119 555.93289,378.85661 565.81677,400.40093 C 586.43517,445.34372 598.96915,485.65413 612.33903,550.02067 C 617.72289,575.94022 618.13992,620.46576 613.06186,627.19787 C 609.35217,632.11595 609.08817,630.99392 609.06033,610.1908 C 609.01306,574.87719 604.50091,528.40637 600.36989,520.68748 C 599.06225,518.24412 597.99235,513.29783 597.99235,509.69571 C 597.99235,495.34903 582.34177,444.81995 578.94897,448.21275 C 578.40708,448.75461 580.08176,456.53454 582.67047,465.50146 C 596.00857,511.70287 603.73627,561.75491 603.70496,601.74077 C 603.67594,638.77769 603.5028,640.23407 598.32803,646.9631 C 593.81932,652.82601 593.68461,651.71662 591.88543,593.90642 z M 140.06275,635.99893 C 136.37533,630.92783 135.64136,624.3085 135.64136,596.12517 C 135.64136,554.37559 140.44162,517.68394 151.90464,471.81385 C 160.84608,436.03405 161.77983,427.08975 154.83959,443.70008 C 143.26604,471.39951 133.18147,529.39204 131.38134,578.5996 C 129.83883,620.7649 129.63168,622.08214 125.62015,615.23397 C 122.08664,609.20187 121.72267,603.55713 123.2071,577.81226 C 124.16856,561.1373 125.63346,543.51492 126.46243,538.65139 C 130.23988,516.48923 145.85022,456.1924 151.97197,440.11757 C 161.0959,416.15947 179.68858,374.42835 181.2388,374.42835 C 183.75494,374.42835 179.76448,393.37429 173.52271,411.06272 C 170.58064,419.4002 164.71796,439.29645 160.49452,455.27661 C 152.00444,487.40048 147.42148,539.26212 147.15427,606.23677 C 147.07528,626.03901 146.44218,642.20452 145.74739,642.16013 C 145.05261,642.11574 142.49451,639.3432 140.06275,635.99893 z M 624.92519,601.47051 C 624.04588,598.18552 623.3109,591.88954 623.29192,587.47942 C 623.27295,583.0693 622.17515,573.97386 620.85237,567.26735 C 619.52959,560.56084 616.54137,544.84133 614.21191,532.33512 C 598.88343,450.04111 568.99264,362.24205 543.26588,323.94334 C 537.34522,315.12941 535.67145,308.73914 539.28355,308.73914 C 541.46706,308.73914 542.08386,309.84004 557.16383,340.65384 C 573.51618,374.06749 576.80506,381.41551 585.02573,402.90243 C 593.3433,424.64263 610.49602,485.8445 617.05258,517.17606 C 619.37891,528.2927 622.26226,540.79892 623.46003,544.96766 C 627.59891,559.37242 631.26376,598.97359 628.85613,603.27578 C 626.84078,606.87701 626.30673,606.63174 624.92519,601.47051 z M 109.65814,590.14776 C 107.79707,588.28669 109.98012,562.21054 113.33477,546.23091 C 114.64751,539.9778 116.6472,530.31391 117.77851,524.75559 C 132.84459,450.73433 149.62502,396.44068 172.82944,346.63676 C 189.73193,310.3587 190.95903,307.96891 196.16139,301.19736 C 204.53047,290.30394 204.15907,297.16204 195.60603,311.45291 C 161.86369,367.83134 125.67307,486.90802 115.65158,574.52422 C 113.98517,589.09337 112.49314,592.98276 109.65814,590.14776 z M 636.36706,453.49439 C 631.89602,451.32902 623.03114,442.63076 616.66727,434.16493 C 604.46375,417.9307 593.19093,397.98925 597.84236,400.86399 C 599.35414,401.79832 602.73191,406.75919 605.34851,411.88813 C 611.22241,423.40193 636.64103,450.2236 641.67866,450.2236 C 656.04681,450.2236 654.05691,419.60979 637.53469,386.46989 C 631.17784,373.71948 626.38972,362.87435 626.89447,362.36963 C 627.39919,361.86491 636.73547,370.42864 647.64175,381.40013 C 668.07067,401.95124 700.83885,422.89022 723.7223,430.01585 C 733.46877,433.0508 743.35591,440.11757 737.85563,440.11757 C 727.11269,440.11757 691.13794,421.63614 666.32505,403.36991 C 649.59206,391.05179 647.95037,392.14438 654.76592,411.06272 C 664.98495,439.42813 654.97737,462.50763 636.36706,453.49439 z M 92.690722,443.311 C 80.578815,439.2346 77.142891,422.73905 83.820603,400.72659 C 90.132528,379.9199 89.151055,377.79225 77.744781,387.55561 C 66.677335,397.0289 28.740627,418.98403 17.733086,422.28618 C 13.798453,423.46651 8.5895766,425.24075 6.1578125,426.22894 C 3.7260474,427.21714 1.7364226,426.93975 1.7364226,425.61253 C 1.7364226,424.28533 6.5683698,421.2378 12.474083,418.84027 C 49.237304,403.91556 73.91659,387.95394 94.881862,365.54199 C 103.5785,356.24522 111.30032,349.24515 112.04142,349.98625 C 112.78252,350.72736 109.88505,357.95117 105.60259,366.03916 C 84.379467,406.12178 81.50617,442.28329 100.01108,436.41007 C 106.75653,434.26913 129.59166,409.02529 135.81159,396.83325 C 138.55361,391.45846 141.28328,387.06089 141.87754,387.06089 C 145.15399,387.06089 136.37177,403.33489 124.85461,418.60548 C 111.3859,436.4636 99.491502,445.59986 92.690722,443.311 z M 383.23915,421.31787 C 383.23915,409.72715 380.16485,408.46072 370.91735,416.24199 C 366.68418,419.80394 359.28768,423.35651 354.48064,424.13659 L 345.74057,425.5549 L 344.07328,413.2558 C 343.15625,406.49129 341.32694,397.42544 340.00815,393.10945 C 337.33735,384.36882 339.8702,374.96455 346.34158,369.59378 C 348.57072,367.74376 350.39455,364.80313 350.39455,363.05906 C 350.39455,361.31499 352.17899,358.40706 354.35995,356.59702 C 356.57453,354.75908 357.7599,351.14364 357.04465,348.40852 C 356.34025,345.71491 358.52899,332.5608 361.90853,319.17718 C 367.10048,298.616 369.32825,293.76616 376.27777,287.89544 L 384.50241,280.94755 L 376.26849,273.99965 C 360.17042,260.41588 367.81743,256.65855 390.10383,267.20173 C 403.28662,273.43818 407.17744,280.46726 396.6076,278.95131 C 392.4094,278.34918 391.20549,280.04081 389.8647,288.42571 C 388.63001,296.14697 387.07717,298.6331 383.4892,298.6331 C 373.98634,298.6331 368.66328,306.62596 366.90922,323.52881 C 365.59423,336.20054 365.94122,339.34319 368.55661,338.4492 C 370.6418,337.73645 371.58776,334.1146 371.10876,328.67769 C 370.50108,321.7804 371.90893,318.54285 378.09175,312.61935 C 385.27617,305.73621 386.13594,305.50013 389.98852,309.3527 C 393.84109,313.20527 393.83856,314.29786 389.95343,324.4709 C 384.64721,338.36505 384.6876,338.86611 390.98138,337.22023 C 397.53725,335.50585 404.45435,325.17438 404.60197,316.87636 C 404.71738,310.38859 405.5296,309.72119 421.7684,302.77028 C 429.13184,299.61844 431.24281,297.29846 431.24281,292.35771 C 431.24281,288.86128 432.1704,286.00056 433.30409,286.00056 C 436.77526,286.00056 446.94561,306.20442 445.44414,310.11727 C 443.53372,315.09574 437.09031,314.76317 434.16455,309.53512 C 431.94059,305.56109 431.35623,305.55715 425.37512,309.47614 C 421.85123,311.78507 415.79746,319.31454 411.9223,326.2083 C 405.64446,337.37633 402.6396,339.79215 384.35199,348.37421 C 369.72244,355.23962 361.89623,360.66474 357.10359,367.26279 C 350.4848,376.37493 350.44894,376.64114 354.80853,384.30076 C 359.99319,393.40998 363.2851,393.92696 372.60379,387.09538 C 376.36887,384.33519 382.9236,381.39492 387.16985,380.56145 C 394.36372,379.14939 395.09181,379.70269 397.84521,388.67406 C 401.53009,400.68047 397.56074,406.34747 392.95456,395.6564 C 391.21711,391.62367 389.59057,387.98372 389.34006,387.56764 C 388.86503,386.77865 371.59882,397.72854 366.29187,402.18437 C 361.63964,406.09045 358.48046,405.2691 356.71082,399.69343 C 354.00874,391.17993 350.39455,394.0713 350.39455,404.74645 C 350.39455,415.35975 353.31626,417.35701 360.30164,411.51885 C 364.17968,408.27772 386.15869,399.14101 387.16374,400.35222 C 387.4396,400.68469 388.18411,407.49403 388.81822,415.4841 C 389.69065,426.47709 389.15222,430.01153 386.60514,430.01153 C 384.45363,430.01153 383.23915,426.8748 383.23915,421.31787 z M 385.26036,328.4459 C 386.92785,326.77841 388.29217,322.72007 388.29217,319.42741 C 388.29217,314.6711 387.12917,313.60663 382.63335,314.24807 C 376.862,315.07145 374.11642,321.28547 376.62991,327.83552 C 378.3325,332.27242 381.22899,332.47727 385.26036,328.4459 z"
       id="path2453" />
  </g>
</svg>
