<?xml version="1.0" encoding="UTF-8" standalone="no"?>
<!-- Created with Inkscape (http://www.inkscape.org/) -->

<svg
   xmlns:dc="http://purl.org/dc/elements/1.1/"
   xmlns:cc="http://creativecommons.org/ns#"
   xmlns:rdf="http://www.w3.org/1999/02/22-rdf-syntax-ns#"
   xmlns:svg="http://www.w3.org/2000/svg"
   xmlns="http://www.w3.org/2000/svg"
   xmlns:sodipodi="http://sodipodi.sourceforge.net/DTD/sodipodi-0.dtd"
   xmlns:inkscape="http://www.inkscape.org/namespaces/inkscape"
   width="649.8139"
   height="411.95303"
   id="svg2"
   sodipodi:version="0.32"
   inkscape:version="0.46+devel"
   sodipodi:docname="sjalfhelda-compact.svg"
   inkscape:output_extension="org.inkscape.output.svg.inkscape"
   version="1.0"
   inkscape:export-filename="/home/avar/src/sjalfhelda-logo/sjalfhelda-compact.png"
   inkscape:export-xdpi="27.15"
   inkscape:export-ydpi="27.15">
  <defs
     id="defs4">
    <inkscape:perspective
       sodipodi:type="inkscape:persp3d"
       inkscape:vp_x="0 : 526.18109 : 1"
       inkscape:vp_y="0 : 1000 : 0"
       inkscape:vp_z="744.09448 : 526.18109 : 1"
       inkscape:persp3d-origin="372.04724 : 350.78739 : 1"
       id="perspective10" />
    <inkscape:perspective
       id="perspective2447"
       inkscape:persp3d-origin="372.04724 : 350.78739 : 1"
       inkscape:vp_z="744.09448 : 526.18109 : 1"
       inkscape:vp_y="0 : 1000 : 0"
       inkscape:vp_x="0 : 526.18109 : 1"
       sodipodi:type="inkscape:persp3d" />
  </defs>
  <sodipodi:namedview
     id="base"
     pagecolor="#ffffff"
     bordercolor="#666666"
     borderopacity="1.0"
     gridtolerance="10000"
     guidetolerance="10"
     objecttolerance="10"
     inkscape:pageopacity="0.0"
     inkscape:pageshadow="2"
     inkscape:zoom="0.98994949"
     inkscape:cx="262.39317"
     inkscape:cy="229.06635"
     inkscape:document-units="px"
     inkscape:current-layer="layer1"
     showgrid="false"
     inkscape:window-width="1280"
     inkscape:window-height="727"
     inkscape:window-x="0"
     inkscape:window-y="24" />
  <metadata
     id="metadata7">
    <rdf:RDF>
      <cc:Work
         rdf:about="">
        <dc:format>image/svg+xml</dc:format>
        <dc:type
           rdf:resource="http://purl.org/dc/dcmitype/StillImage" />
        <dc:title></dc:title>
      </cc:Work>
    </rdf:RDF>
  </metadata>
  <g
     inkscape:label="Layer 1"
     inkscape:groupmode="layer"
     id="layer1"
     transform="translate(-53.254202,-287.38982)">
    <g
       id="g3741">
      <g
         id="g2816">
        <path
           style="fill:#000000"
           d="m 230.95958,655.42834 c 49.26617,-41.53304 62.9784,-56.57092 74.1758,-81.34703 5.45375,-12.06733 9.92004,-16.38528 9.86072,-9.53322 -0.0151,1.73698 -1.67604,8.5917 -3.69108,15.23271 -9.08295,29.93457 -6.63724,67.44033 4.53801,69.59226 9.21317,1.77411 21.50064,-15.986 30.86243,-44.60806 5.8162,-17.78204 7.79672,-14.73594 2.42748,3.7336 -7.75146,26.66409 -22.12716,48.89867 -31.61528,48.89867 -11.79802,0 -20.37328,-21.14872 -18.34314,-45.23862 0.88107,-10.45497 0.38905,-15.39758 -1.53279,-15.39758 -1.5567,0 -2.83036,1.0614 -2.83036,2.35863 0,4.54312 -40.7835,45.39223 -54.23074,54.318 -16.04452,10.64974 -21.14396,11.70484 -9.62105,1.99064 z"
           id="path2810" />
        <path
           style="fill:#000000"
           d="m 518.03491,653.41542 c -12.1094,-8.22002 -38.03713,-33.73627 -50.52135,-49.71953 -2.97915,-3.81415 -5.96568,-6.93482 -6.63678,-6.93482 -0.67109,0 -1.08074,9.37967 -0.91035,20.8437 0.35911,24.16137 -4.34905,36.125 -15.29813,38.87305 -9.36691,2.35095 -20.82154,-10.70319 -29.25755,-33.34301 -7.39155,-19.83685 -11.40529,-37.60661 -7.09851,-31.42675 1.45262,2.08437 2.65855,5.74697 2.67982,8.13912 0.057,6.40728 11.86896,32.0195 19.19899,41.62963 6.85189,8.9833 13.69329,10.62887 18.76794,4.51428 7.32867,-8.83052 5.40632,-46.61571 -4.01493,-78.91649 -3.37541,-11.57259 3.4903,-5.16847 11.6108,10.83021 4.61037,9.08315 13.603,22.44206 19.9836,29.68647 14.4878,16.44911 39.07437,39.6735 42.11299,39.7798 2.59796,0.0909 16.1782,11.58648 16.1782,13.69476 0,2.82885 -4.12562,0.94953 -16.79474,-7.65042 z"
           id="path2808" />
      </g>
      <g
         transform="translate(-36.365492,47.16303)"
         id="g2820">
        <g
           id="g3607">
          <path
             id="path2806"
             d="m 591.88543,593.90642 c -2.27381,-73.06035 -3.30124,-89.24592 -6.2973,-99.20362 -1.29819,-4.31464 -4.83702,-17.50873 -7.86408,-29.32016 -3.02706,-11.81141 -8.88368,-31.96027 -13.0147,-44.77523 -9.45685,-29.33622 -8.77646,-41.7508 1.10742,-20.20648 20.6184,44.94279 33.15238,85.2532 46.52226,149.61974 5.38386,25.91955 5.80089,70.44509 0.72283,77.1772 -3.70969,4.91808 -3.97369,3.79605 -4.00153,-17.00707 -0.0473,-35.31361 -4.55942,-81.78443 -8.69044,-89.50332 -1.30764,-2.44336 -2.37754,-7.38965 -2.37754,-10.99177 0,-14.34668 -15.65058,-64.87576 -19.04338,-61.48296 -0.54189,0.54186 1.13279,8.32179 3.7215,17.28871 13.3381,46.20141 21.0658,96.25345 21.03449,136.23931 -0.029,37.03692 -0.20216,38.4933 -5.37693,45.22233 -4.50871,5.86291 -4.64342,4.75352 -6.4426,-53.05668 z"
             style="fill:#000000" />
          <path
             id="path2802"
             d="m 624.92519,601.47051 c -0.87931,-3.28499 -1.61429,-9.58097 -1.63327,-13.99109 -0.019,-4.41012 -1.11677,-13.50556 -2.43955,-20.21207 -1.32278,-6.70651 -4.311,-22.42602 -6.64046,-34.93223 -15.32848,-82.29401 -45.21927,-170.09307 -70.94603,-208.39178 -5.92066,-8.81393 -7.59443,-15.2042 -3.98233,-15.2042 2.18351,0 2.80031,1.1009 17.88028,31.9147 16.35235,33.41365 19.64123,40.76167 27.8619,62.24859 8.31757,21.7402 25.47029,82.94207 32.02685,114.27363 2.32633,11.11664 5.20968,23.62286 6.40745,27.7916 4.13888,14.40476 7.80373,54.00593 5.3961,58.30812 -2.01535,3.60123 -2.5494,3.35596 -3.93094,-1.80527 z"
             style="fill:#000000" />
          <path
             id="path2798"
             d="m 636.36706,453.49439 c -4.47104,-2.16537 -13.33592,-10.86363 -19.69979,-19.32946 -12.20352,-16.23423 -23.47634,-36.17568 -18.82491,-33.30094 1.51178,0.93433 4.88955,5.8952 7.50615,11.02414 5.8739,11.5138 31.29252,38.33547 36.33015,38.33547 14.36815,0 12.37825,-30.61381 -4.14397,-63.75371 -6.35685,-12.75041 -11.14497,-23.59554 -10.64022,-24.10026 0.50472,-0.50472 9.841,8.05901 20.74728,19.0305 20.42892,20.55111 53.1971,41.49009 76.08055,48.61572 9.74647,3.03495 19.63361,10.10172 14.13333,10.10172 -10.74294,0 -46.71769,-18.48143 -71.53058,-36.74766 -16.73299,-12.31812 -18.37468,-11.22553 -11.55913,7.69281 10.21903,28.36541 0.21145,51.44491 -18.39886,42.43167 z"
             style="fill:#000000" />
        </g>
      </g>
      <g
         transform="translate(51.517779,57.182622)"
         id="g2825">
        <path
           style="fill:#000000"
           d="m 140.06275,635.99893 c -3.68742,-5.0711 -4.42139,-11.69043 -4.42139,-39.87376 0,-41.74958 4.80026,-78.44123 16.26328,-124.31132 8.94144,-35.7798 9.87519,-44.7241 2.93495,-28.11377 -11.57355,27.69943 -21.65812,85.69196 -23.45825,134.89952 -1.54251,42.1653 -1.74966,43.48254 -5.76119,36.63437 -3.53351,-6.0321 -3.89748,-11.67684 -2.41305,-37.42171 0.96146,-16.67496 2.42636,-34.29734 3.25533,-39.16087 3.77745,-22.16216 19.38779,-82.45899 25.50954,-98.53382 9.12393,-23.9581 27.71661,-65.68922 29.26683,-65.68922 2.51614,0 -1.47432,18.94594 -7.71609,36.63437 -2.94207,8.33748 -8.80475,28.23373 -13.02819,44.21389 -8.49008,32.12387 -13.07304,83.98551 -13.34025,150.96016 -0.079,19.80224 -0.71209,35.96775 -1.40688,35.92336 -0.69478,-0.0444 -3.25288,-2.81693 -5.68464,-6.1612 z"
           id="path2804" />
        <path
           style="fill:#000000"
           d="m 109.65814,590.14776 c -1.86107,-1.86107 0.32198,-27.93722 3.67663,-43.91685 1.31274,-6.25311 3.31243,-15.917 4.44374,-21.47532 15.06608,-74.02126 31.84651,-128.31491 55.05093,-178.11883 16.90249,-36.27806 18.12959,-38.66785 23.33195,-45.4394 8.36908,-10.89342 7.99768,-4.03532 -0.55536,10.25555 -33.74234,56.37843 -69.93296,175.45511 -79.95445,263.07131 -1.66641,14.56915 -3.15844,18.45854 -5.99344,15.62354 z"
           id="path2800" />
        <path
           style="fill:#000000"
           d="m 92.690722,443.311 c -12.111907,-4.0764 -15.547831,-20.57195 -8.870119,-42.58441 6.311925,-20.80669 5.330452,-22.93434 -6.075822,-13.17098 -11.067446,9.47329 -49.004154,31.42842 -60.011695,34.73057 -3.934633,1.18033 -9.1435094,2.95457 -11.5752735,3.94276 -2.4317651,0.9882 -4.4213899,0.71081 -4.4213899,-0.61641 0,-1.3272 4.8319472,-4.37473 10.7376604,-6.77226 36.763221,-14.92471 61.442507,-30.88633 82.407779,-53.29828 8.696638,-9.29677 16.418458,-16.29684 17.159558,-15.55574 0.7411,0.74111 -2.15637,7.96492 -6.43883,16.05291 -21.223123,40.08262 -24.09642,76.24413 -5.59151,70.37091 6.74545,-2.14094 29.58058,-27.38478 35.80051,-39.57682 2.74202,-5.37479 5.47169,-9.77236 6.06595,-9.77236 3.27645,0 -5.50577,16.274 -17.02293,31.54459 C 111.3859,436.4636 99.491502,445.59986 92.690722,443.311 z"
           id="path2796" />
      </g>
      <path
         id="path2794"
         transform="translate(53.254202,287.38982)"
         d="M 309.65625 0 C 301.18751 0.32162391 303.06944 7.7148453 318.40625 20.65625 L 331.625 31.8125 L 318.4375 42.96875 C 307.28654 52.3887 303.70582 60.16449 295.375 93.15625 C 289.9523 114.63115 286.43225 135.74042 287.5625 140.0625 C 288.71017 144.45118 286.80343 150.23841 283.25 153.1875 C 279.7505 156.09183 276.90625 160.76402 276.90625 163.5625 C 276.90625 166.36097 273.98305 171.06277 270.40625 174.03125 C 260.02249 182.649 255.93328 197.75634 260.21875 211.78125 C 262.33484 218.70654 265.27856 233.23965 266.75 244.09375 L 269.4375 263.84375 L 283.46875 261.5625 C 291.18196 260.31081 303.05135 254.62163 309.84375 248.90625 C 324.68197 236.42069 329.59375 238.43318 329.59375 257.03125 C 329.59375 265.94771 331.54776 271 335 271 C 339.08696 271 339.96238 265.32648 338.5625 247.6875 C 337.54503 234.86691 336.34889 223.93972 335.90625 223.40625 C 334.29358 221.46278 299.00382 236.11189 292.78125 241.3125 C 281.57275 250.68021 276.90625 247.46723 276.90625 230.4375 C 276.90625 213.30852 282.69559 208.68328 287.03125 222.34375 C 289.87076 231.29027 294.94144 232.61131 302.40625 226.34375 C 310.9216 219.19408 338.61278 201.60901 339.375 202.875 C 339.77696 203.54263 342.39965 209.40422 345.1875 215.875 C 352.57842 233.02952 358.94388 223.92133 353.03125 204.65625 C 348.61324 190.2611 347.44928 189.39051 335.90625 191.65625 C 329.09286 192.99361 318.57257 197.69609 312.53125 202.125 C 297.5788 213.08672 292.28787 212.27259 283.96875 197.65625 C 276.9735 185.36588 277.03597 184.93352 287.65625 170.3125 C 295.34636 159.72549 307.90092 151.016 331.375 140 C 360.71867 126.22952 365.55179 122.35734 375.625 104.4375 C 381.84294 93.37601 391.56444 81.29858 397.21875 77.59375 C 406.81583 71.30553 407.74401 71.3109 411.3125 77.6875 C 416.00707 86.07624 426.34085 86.61329 429.40625 78.625 C 431.81545 72.34658 415.50722 39.90625 409.9375 39.90625 C 408.11842 39.90625 406.625 44.51475 406.625 50.125 C 406.625 58.05276 403.25262 61.75516 391.4375 66.8125 C 365.38128 77.96569 364.06018 79.05869 363.875 89.46875 C 363.63813 102.78346 352.55057 119.34292 342.03125 122.09375 C 331.93246 124.73467 331.86083 123.95033 340.375 101.65625 C 346.60895 85.33294 346.6192 83.5567 340.4375 77.375 C 334.25579 71.1933 332.87162 71.58056 321.34375 82.625 C 311.42301 92.12965 309.14994 97.3391 310.125 108.40625 C 310.89359 117.13013 309.37707 122.91885 306.03125 124.0625 C 301.83468 125.49697 301.29627 120.45762 303.40625 100.125 C 306.22076 73.00327 314.75204 60.1875 330 60.1875 C 335.75713 60.1875 338.23761 56.20177 340.21875 43.8125 C 342.37013 30.35838 344.32621 27.62759 351.0625 28.59375 C 368.0225 31.02619 361.77765 19.7568 340.625 9.75 C 326.0975 2.8773794 315.45065 -0.22005846 309.65625 0 z M 332.15625 84.96875 C 336.48756 85.057526 337.71875 87.361654 337.71875 93.5625 C 337.71875 98.84579 335.51935 105.35566 332.84375 108.03125 C 326.37515 114.49985 321.73191 114.15054 319 107.03125 C 314.96694 96.52126 319.36449 86.57117 328.625 85.25 C 329.9776 85.057019 331.15672 84.948263 332.15625 84.96875 z "
         style="fill:#000000" />
    </g>
  </g>
</svg>
